<svg width="24" height="24" viewBox="0 0 24 24" fill="none" xmlns="http://www.w3.org/2000/svg">
<path fill-rule="evenodd" clip-rule="evenodd" d="M3.74354 3.74354C5.02017 2.46691 6.91034 2 9.27273 2H14.7273C17.0897 2 18.9798 2.46691 20.2565 3.74354C21.5331 5.02017 22 6.91034 22 9.27273V14.7273C22 17.0897 21.5331 18.9798 20.2565 20.2565C18.9798 21.5331 17.0897 22 14.7273 22H9.27273C6.91034 22 5.02017 21.5331 3.74354 20.2565C2.46691 18.9798 2 17.0897 2 14.7273V9.27273C2 6.91034 2.46691 5.02017 3.74354 3.74354ZM5.02919 5.02919C4.26036 5.79801 3.81818 7.08966 3.81818 9.27273V14.7273C3.81818 16.9103 4.26036 18.202 5.02919 18.9708C5.79801 19.7396 7.08966 20.1818 9.27273 20.1818H14.7273C16.9103 20.1818 18.202 19.7396 18.9708 18.9708C19.7396 18.202 20.1818 16.9103 20.1818 14.7273V9.27273C20.1818 7.08966 19.7396 5.79801 18.9708 5.02919C18.202 4.26036 16.9103 3.81818 14.7273 3.81818H9.27273C7.08966 3.81818 5.79801 4.26036 5.02919 5.02919Z" fill="black"/>
<path fill-rule="evenodd" clip-rule="evenodd" d="M9.10729 9.10729C9.87449 8.3401 10.915 7.90909 12 7.90909C12.5372 7.90909 13.0692 8.0149 13.5655 8.22049C14.0619 8.42608 14.5128 8.72742 14.8927 9.10729C15.2726 9.48717 15.5739 9.93815 15.7795 10.4345C15.9851 10.9308 16.0909 11.4628 16.0909 12C16.0909 12.5372 15.9851 13.0692 15.7795 13.5655C15.5739 14.0619 15.2726 14.5128 14.8927 14.8927C14.5128 15.2726 14.0619 15.5739 13.5655 15.7795C13.0692 15.9851 12.5372 16.0909 12 16.0909C10.915 16.0909 9.87449 15.6599 9.10729 14.8927C8.3401 14.1255 7.90909 13.085 7.90909 12C7.90909 10.915 8.3401 9.87449 9.10729 9.10729ZM12 9.72727C11.3972 9.72727 10.8192 9.96672 10.3929 10.3929C9.96672 10.8192 9.72727 11.3972 9.72727 12C9.72727 12.6028 9.96672 13.1808 10.3929 13.6071C10.8192 14.0333 11.3972 14.2727 12 14.2727C12.2985 14.2727 12.594 14.2139 12.8697 14.0997C13.1455 13.9855 13.396 13.8181 13.6071 13.6071C13.8181 13.396 13.9855 13.1455 14.0997 12.8697C14.2139 12.594 14.2727 12.2985 14.2727 12C14.2727 11.7015 14.2139 11.406 14.0997 11.1303C13.9855 10.8545 13.8181 10.604 13.6071 10.3929C13.396 10.1819 13.1455 10.0145 12.8697 9.90027C12.594 9.78606 12.2985 9.72727 12 9.72727Z" fill="black"/>
<path fill-rule="evenodd" clip-rule="evenodd" d="M15.76 7.45455C15.76 6.70143 16.3705 6.09091 17.1236 6.09091H17.1345C17.8877 6.09091 18.4982 6.70143 18.4982 7.45455C18.4982 8.20766 17.8877 8.81818 17.1345 8.81818H17.1236C16.3705 8.81818 15.76 8.20766 15.76 7.45455Z" fill="black"/>
</svg>
