<svg width="24" height="24" viewBox="0 0 24 24" fill="none" xmlns="http://www.w3.org/2000/svg">
<path d="M18.3204 8.32291C18.8058 8.32291 19.1942 7.93079 19.1942 7.44064V2.88227C19.1942 2.39212 18.8058 2 18.3204 2C17.835 2 17.4466 2.39212 17.4466 2.88227V7.44064C17.4466 7.92099 17.8447 8.32291 18.3204 8.32291ZM12 15.6751C11.5146 15.6751 11.1262 16.0672 11.1262 16.5574V21.1158C11.1262 21.6059 11.5146 21.998 12 21.998C12.4854 21.998 12.8738 21.6059 12.8738 21.1158V16.5574C12.8738 16.0771 12.4854 15.6751 12 15.6751ZM5.67961 8.32291C6.16505 8.32291 6.5534 7.93079 6.5534 7.44064V2.88227C6.5534 2.39212 6.16505 2 5.67961 2C5.19417 2 4.80583 2.39212 4.80583 2.88227V7.44064C4.80583 7.92099 5.19417 8.32291 5.67961 8.32291ZM7.48544 10.207H3.87379C3.38835 10.207 3 10.5992 3 11.0893C3 11.5795 3.38835 11.9716 3.87379 11.9716H4.80583V21.1177C4.80583 21.6079 5.19417 22 5.67961 22C6.16505 22 6.5534 21.6079 6.5534 21.1177V11.9716H7.48544C7.97087 11.9716 8.35922 11.5795 8.35922 11.0893C8.35922 10.5992 7.96116 10.207 7.48544 10.207ZM20.1262 10.207H16.5146C16.0291 10.207 15.6408 10.5992 15.6408 11.0893C15.6408 11.5795 16.0291 11.9716 16.5146 11.9716H17.4466V21.1177C17.4466 21.6079 17.835 22 18.3204 22C18.8058 22 19.1942 21.6079 19.1942 21.1177V11.9716H20.1262C20.6117 11.9716 21 11.5795 21 11.0893C21 10.5992 20.6117 10.207 20.1262 10.207ZM13.8058 12.0284H12.8738V2.88227C12.8738 2.39212 12.4854 2 12 2C11.5146 2 11.1262 2.39212 11.1262 2.88227V12.0284H10.1942C9.70874 12.0284 9.32039 12.4205 9.32039 12.9107C9.32039 13.4008 9.70874 13.793 10.1942 13.793H13.8058C14.2913 13.793 14.6796 13.4008 14.6796 12.9107C14.6796 12.4205 14.2913 12.0284 13.8058 12.0284Z" fill="black"/>
</svg>
