<svg width="24" height="24" viewBox="0 0 24 24" fill="none" xmlns="http://www.w3.org/2000/svg">
<path fill-rule="evenodd" clip-rule="evenodd" d="M2 12C2 6.49792 6.49792 2 12 2C17.5021 2 22 6.49792 22 12C22 17.5021 17.5021 22 12 22C6.49792 22 2 17.5021 2 12ZM12 3.81818C7.50208 3.81818 3.81818 7.50208 3.81818 12C3.81818 16.4979 7.50208 20.1818 12 20.1818C16.4979 20.1818 20.1818 16.4979 20.1818 12C20.1818 7.50208 16.4979 3.81818 12 3.81818ZM12 7.45455C12.5021 7.45455 12.9091 7.86156 12.9091 8.36364V12.9091C12.9091 13.4112 12.5021 13.8182 12 13.8182C11.4979 13.8182 11.0909 13.4112 11.0909 12.9091V8.36364C11.0909 7.86156 11.4979 7.45455 12 7.45455ZM11.0864 15.6364C11.0864 15.1343 11.4934 14.7273 11.9955 14.7273H12.0036C12.5057 14.7273 12.9127 15.1343 12.9127 15.6364C12.9127 16.1384 12.5057 16.5455 12.0036 16.5455H11.9955C11.4934 16.5455 11.0864 16.1384 11.0864 15.6364Z" fill="black"/>
</svg>
