<svg width="24" height="24" viewBox="0 0 24 24" fill="none" xmlns="http://www.w3.org/2000/svg">
<path fill-rule="evenodd" clip-rule="evenodd" d="M3.51627 3.57889C4.50516 2.54916 5.88432 2 7.45455 2H16.5455C18.1157 2 19.4948 2.54916 20.4837 3.57889C21.4726 4.60862 22 6.04475 22 7.67982V13.3596C22 14.9947 21.4726 16.4308 20.4837 17.4606C19.6907 18.2863 18.6468 18.803 17.4545 18.9754V20.1088C17.4545 20.1089 17.4545 20.109 17.4545 20.1092C17.4546 20.4513 17.3655 20.787 17.1968 21.0805C17.028 21.3741 16.7858 21.6146 16.4961 21.7761C16.2064 21.9377 15.88 22.0143 15.5517 21.9978C15.2237 21.9813 14.9062 21.8726 14.6329 21.6831C14.6328 21.683 14.6327 21.6829 14.6326 21.6829C14.6324 21.6828 14.6323 21.6827 14.6321 21.6825L10.8162 19.0395H7.45455C5.88432 19.0395 4.50516 18.4903 3.51627 17.4606C2.52738 16.4308 2 14.9947 2 13.3596V7.67982C2 6.04475 2.52738 4.60862 3.51627 3.57889ZM4.80192 4.91764C4.1999 5.54452 3.81818 6.47499 3.81818 7.67982V13.3596C3.81818 14.5645 4.1999 15.4949 4.80192 16.1218C5.40393 16.7487 6.2975 17.1462 7.45455 17.1462H11.0909C11.2701 17.1462 11.4452 17.2013 11.5944 17.3046L15.6364 20.1043V18.0928C15.6364 17.57 16.0434 17.1462 16.5455 17.1462C17.7025 17.1462 18.5961 16.7487 19.1981 16.1218C19.8001 15.4949 20.1818 14.5645 20.1818 13.3596V7.67982C20.1818 6.47499 19.8001 5.54452 19.1981 4.91764C18.5961 4.29075 17.7025 3.89327 16.5455 3.89327H7.45455C6.2975 3.89327 5.40393 4.29075 4.80192 4.91764ZM7.90909 10.586C7.90909 10.0632 8.3161 9.63936 8.81818 9.63936H15.1818C15.6839 9.63936 16.0909 10.0632 16.0909 10.586C16.0909 11.1088 15.6839 11.5326 15.1818 11.5326H8.81818C8.3161 11.5326 7.90909 11.1088 7.90909 10.586Z" fill="#5789AD"/>
</svg>
