<svg width="24" height="24" viewBox="0 0 24 24" fill="none" xmlns="http://www.w3.org/2000/svg">
<path fill-rule="evenodd" clip-rule="evenodd" d="M15.9643 3H15.9634C15.025 3.00082 14.0999 3.22097 13.2621 3.6428C12.8053 3.87281 12.3814 4.15929 11.9998 4.4943C10.9431 3.56531 9.55724 3 8.03574 3C4.69792 3 2 5.71147 2 9.0505C2 12.525 3.61689 15.2584 5.5212 17.2057C7.41065 19.1377 9.64731 20.3665 11.0959 20.8609C11.3964 20.9657 11.7244 21 12 21C12.2757 21 12.6037 20.9657 12.9042 20.8609C14.3528 20.3665 16.5894 19.1377 18.4789 17.2057C20.3832 15.2584 22.0001 12.525 22.0001 9.0505C22.0001 5.71147 19.3022 3 15.9643 3Z" fill="black"/>
</svg>
