<svg width="24" height="24" viewBox="0 0 24 24" fill="none" xmlns="http://www.w3.org/2000/svg">
<path d="M21.9525 11.8285C20.793 9.17802 18.3339 7.35768 15.5049 6.95761C15.325 6.65755 15.1351 6.3475 14.9452 6.02744C14.7052 5.64737 14.4753 5.2573 14.2754 4.91724C13.8156 4.12709 12.8559 3.79703 11.9863 4.12709C10.067 4.87723 8.67752 5.95743 7.73787 7.4377C7.398 7.96779 7.42799 8.63792 7.79785 9.12801L8.04776 9.49808C8.04776 9.49808 8.09774 9.56809 8.11773 9.6081C7.54794 10.1082 6.8782 10.3782 6.09849 10.3782L2.73976 8.24785C2.58981 8.14783 2.40988 8.14783 2.24994 8.22784C2.1 8.30786 2.00003 8.46789 2.00003 8.63792V8.96798C2.00003 10.0682 1.98004 11.1884 2.90969 12.0285C1.99004 12.8587 2.00003 13.9889 2.00003 15.0891V15.4192C2.00003 15.5892 2.1 15.7492 2.24994 15.8292C2.39988 15.9093 2.58981 15.8992 2.73976 15.8092L6.04851 13.6588H6.09849C6.97816 13.6588 7.72788 13.9789 8.32765 14.609C9.27729 15.5892 10.4269 16.3093 11.6864 16.7294C11.1366 17.8696 11.1666 18.8998 11.7664 19.8C11.8363 19.91 11.9463 19.98 12.0762 20C12.1062 20 12.1362 20 12.1662 20C12.2662 20 12.3661 19.97 12.4461 19.91L16.9644 16.7194C19.1636 15.9893 21.0129 14.379 21.9625 12.1986C22.0125 12.0785 22.0125 11.9485 21.9625 11.8285H21.9525ZM5.51871 12.8787L2.95967 14.549C2.97966 13.5288 3.11961 12.9187 3.9493 12.4486C4.10924 12.3586 4.18921 12.1986 4.18921 12.0285C4.18921 11.8585 4.10924 11.6985 3.9493 11.6085C3.12961 11.1384 2.97966 10.5283 2.95967 9.50808L5.51871 11.1784V12.8787ZM12.3361 5.01725C12.756 4.85722 13.2258 5.01725 13.4457 5.39732C13.6456 5.74739 13.8856 6.13746 14.1255 6.52753C14.1954 6.64755 14.2754 6.76757 14.3454 6.8876C13.8056 6.8876 13.2858 6.93761 12.766 7.03762L11.7464 5.29731C11.9463 5.20729 12.1262 5.10727 12.3361 5.02726V5.01725ZM10.4868 7.82777L9.75711 6.57754C10.097 6.26748 10.4768 5.98743 10.9067 5.73739L11.8063 7.27767C11.3565 7.41769 10.9167 7.60773 10.4868 7.82777ZM8.54757 7.95779C8.69751 7.71775 8.88744 7.49771 9.06737 7.27767L9.66715 8.30786C9.37725 8.50789 9.09736 8.72793 8.82746 8.96798C8.69751 8.77794 8.57756 8.60791 8.56756 8.58791C8.41762 8.39787 8.41762 8.15783 8.53757 7.95779H8.54757ZM6.47835 12.7487V11.3184C7.46797 11.2384 8.31765 10.8283 9.02739 10.0982C10.4269 8.63792 12.3161 7.83777 14.3454 7.83777C15.415 7.83777 16.4446 8.06781 17.3842 8.48789C16.4046 9.39806 15.7948 10.7083 15.7948 12.0385C15.7948 13.3688 16.4046 14.679 17.4142 15.5792C16.4746 16.0093 15.435 16.2393 14.3554 16.2393C12.3261 16.2393 10.4369 15.4392 9.03738 13.9789C8.33765 13.2488 7.47797 12.8387 6.48834 12.7587L6.47835 12.7487ZM12.3361 18.8498C12.1462 18.3097 12.2562 17.6996 12.626 16.9995C13.1858 17.1095 13.7556 17.1695 14.3354 17.1695C14.4753 17.1695 14.6053 17.1495 14.7452 17.1395L12.3261 18.8498H12.3361ZM18.3039 15.0791C17.3343 14.359 16.7345 13.2188 16.7345 12.0285C16.7345 10.8383 17.3343 9.67811 18.2739 8.95798C19.4435 9.68811 20.3931 10.7383 21.0029 12.0285C20.4031 13.2988 19.4535 14.349 18.3039 15.0791Z" fill="black"/>
<path d="M18.9636 12.2086C19.2286 12.2086 19.4435 11.9981 19.4435 11.7385C19.4435 11.4789 19.2286 11.2684 18.9636 11.2684C18.6986 11.2684 18.4838 11.4789 18.4838 11.7385C18.4838 11.9981 18.6986 12.2086 18.9636 12.2086Z" fill="black"/>
</svg>
