<svg width="24" height="24" viewBox="0 0 24 24" fill="none" xmlns="http://www.w3.org/2000/svg">
<path fill-rule="evenodd" clip-rule="evenodd" d="M15.0047 2.00457C15.4758 1.95742 15.904 2.28032 15.9887 2.74652C16.236 4.10776 15.6154 5.36628 15.0042 6.18186C14.3373 7.07179 13.0622 7.94279 11.652 7.81449C11.2455 7.7775 10.9136 7.47368 10.8406 7.07175C10.5905 5.6952 11.2292 4.52253 11.8251 3.72732C11.8388 3.70906 11.8531 3.69132 11.8682 3.67414C12.6399 2.79143 13.844 2.12073 15.0047 2.00457ZM13.2572 4.8467C13.0223 5.16415 12.84 5.47837 12.7281 5.78843C13.0419 5.62399 13.3353 5.37862 13.5509 5.09096C13.761 4.81066 13.9342 4.51063 14.0528 4.20819C13.7566 4.3802 13.4794 4.59869 13.2572 4.8467ZM4.8779 10.064C5.85043 8.45214 7.49466 7.54549 9.10012 7.54549C9.88449 7.54549 10.5493 7.7675 11.0742 7.94277C11.0873 7.94714 11.1003 7.95148 11.1132 7.95578C11.281 8.01178 11.416 8.0597 11.5297 8.10006C11.8664 8.2196 12.0161 8.27276 12.2793 8.27276C12.5854 8.27276 12.8318 8.21791 13.2136 8.06506C13.2301 8.05845 13.2468 8.05232 13.2637 8.04669L13.278 8.04191C13.8334 7.85659 14.4933 7.6364 15.4584 7.6364C16.9251 7.6364 18.3751 8.31658 19.3642 9.6364C19.5246 9.85042 19.5826 10.1243 19.5229 10.385C19.4631 10.6458 19.2916 10.867 19.0541 10.9897C17.0185 12.0412 17.2441 15.0367 19.4196 15.8795C19.6514 15.9693 19.8363 16.1503 19.9312 16.3803C20.0261 16.6103 20.0227 16.8691 19.9217 17.0965C19.5331 17.9716 19.235 18.4676 18.7719 19.2091C18.7607 19.2271 18.7488 19.2448 18.7363 19.262C18.6973 19.3157 18.6567 19.372 18.6146 19.4304C18.2885 19.8826 17.8706 20.4624 17.3872 20.9346C16.8379 21.4713 16.0759 22 15.0951 22C14.4103 22 14.0027 21.8751 13.5428 21.6486C13.5023 21.6323 13.4649 21.6171 13.4298 21.6028C13.2564 21.5323 13.1409 21.4854 12.994 21.4452C12.8296 21.4004 12.6154 21.3636 12.2793 21.3636C11.7347 21.3636 11.4153 21.4886 10.9816 21.6623C10.9435 21.6775 10.9044 21.6902 10.8646 21.7001C10.8153 21.7125 10.7619 21.7296 10.6832 21.7572C10.6694 21.762 10.654 21.7675 10.6373 21.7734C10.5699 21.7973 10.4812 21.8287 10.3929 21.8563C10.1458 21.9336 9.84855 22 9.46345 22C8.55188 22 7.82003 21.5408 7.26448 21.0378C6.71207 20.5375 6.23016 19.8974 5.83016 19.3636C5.81876 19.3484 5.80784 19.3329 5.79741 19.317C4.76036 17.7354 4.18969 15.9786 4.04006 14.3563C3.89277 12.7593 4.14712 11.1987 4.8779 10.064ZM9.10012 9.36367C8.16685 9.36367 7.0909 9.9064 6.42737 11.0132C6.42177 11.0226 6.416 11.0318 6.41007 11.0409C5.96695 11.7232 5.72442 12.8382 5.84902 14.1892C5.97117 15.5136 6.44024 16.9747 7.30094 18.296C7.71161 18.8437 8.08756 19.3312 8.48329 19.6895C8.88147 20.0501 9.1942 20.1818 9.46345 20.1818C9.62335 20.1818 9.73484 20.1573 9.85105 20.1209C9.90389 20.1044 9.95018 20.088 10.0117 20.0663C10.0333 20.0586 10.0568 20.0503 10.0831 20.0411C10.1593 20.0144 10.2531 19.9824 10.3587 19.9534C10.8244 19.7672 11.4033 19.5455 12.2793 19.5455C13.2009 19.5455 13.7035 19.7507 14.1324 19.9258C14.1727 19.9422 14.2123 19.9584 14.2516 19.9741C14.275 19.9835 14.2979 19.9938 14.3204 20.0051C14.5727 20.1313 14.707 20.1818 15.0951 20.1818C15.3859 20.1818 15.7138 20.0287 16.1182 19.6336C16.4812 19.2789 16.8024 18.8349 17.1406 18.3672C17.1762 18.3179 17.2121 18.2684 17.2482 18.2186C17.5121 17.7958 17.706 17.4777 17.8923 17.125C15.5252 15.5564 15.0442 12.013 17.2348 10.0492C16.6958 9.64841 16.0732 9.45458 15.4584 9.45458C14.807 9.45458 14.3829 9.58995 13.8626 9.76339C13.3461 9.96807 12.8716 10.0909 12.2793 10.0909C11.6733 10.0909 11.1755 9.90994 10.7816 9.76669C10.6957 9.73546 10.6148 9.70603 10.5387 9.68066C9.9795 9.4941 9.56786 9.36367 9.10012 9.36367Z" fill="black"/>
</svg>
