<svg width="24" height="24" viewBox="0 0 24 24" fill="none" xmlns="http://www.w3.org/2000/svg">
<path fill-rule="evenodd" clip-rule="evenodd" d="M3.74354 3.74354C5.02017 2.46691 6.91034 2 9.27273 2H14.7273C17.0897 2 18.9798 2.46691 20.2565 3.74354C21.5331 5.02017 22 6.91034 22 9.27273V14.7273C22 17.0897 21.5331 18.9798 20.2565 20.2565C18.9798 21.5331 17.0897 22 14.7273 22H9.27273C6.91034 22 5.02017 21.5331 3.74354 20.2565C2.46691 18.9798 2 17.0897 2 14.7273V9.27273C2 6.91034 2.46691 5.02017 3.74354 3.74354ZM5.02919 5.02919C4.26036 5.79801 3.81818 7.08966 3.81818 9.27273V14.7273C3.81818 16.9103 4.26036 18.202 5.02919 18.9708C5.79801 19.7396 7.08966 20.1818 9.27273 20.1818H14.7273C16.9103 20.1818 18.202 19.7396 18.9708 18.9708C19.7396 18.202 20.1818 16.9103 20.1818 14.7273V9.27273C20.1818 7.08966 19.7396 5.79801 18.9708 5.02919C18.202 4.26036 16.9103 3.81818 14.7273 3.81818H9.27273C7.08966 3.81818 5.79801 4.26036 5.02919 5.02919ZM12 6.8C12.5021 6.8 12.9091 7.20701 12.9091 7.70909V8.32727H14.0909C14.1497 8.31535 14.2105 8.30909 14.2727 8.30909C14.335 8.30909 14.3958 8.31535 14.4545 8.32727H16.5364C17.0384 8.32727 17.4455 8.73429 17.4455 9.23636C17.4455 9.73844 17.0384 10.1455 16.5364 10.1455H15.1301C14.967 11.5973 14.4256 12.935 13.6081 14.0463C14.4483 14.904 15.4683 15.3818 16.5455 15.3818C17.0475 15.3818 17.4545 15.7888 17.4545 16.2909C17.4545 16.793 17.0475 17.2 16.5455 17.2C14.9191 17.2 13.4822 16.4867 12.3695 15.3786C11.0378 16.5148 9.3285 17.2 7.45455 17.2C6.95247 17.2 6.54545 16.793 6.54545 16.2909C6.54545 15.7888 6.95247 15.3818 7.45455 15.3818C9.07221 15.3818 10.5513 14.6986 11.6251 13.5847C11.6833 13.4857 11.7613 13.3961 11.8583 13.3222C11.8634 13.3184 11.8685 13.3146 11.8736 13.3108C12.6135 12.4437 13.1234 11.3553 13.2976 10.1455H7.46364C6.96156 10.1455 6.55455 9.73844 6.55455 9.23636C6.55455 8.73429 6.96156 8.32727 7.46364 8.32727H11.0909V7.70909C11.0909 7.20701 11.4979 6.8 12 6.8Z" fill="black"/>
</svg>
