<svg width="24" height="24" viewBox="0 0 24 24" fill="none" xmlns="http://www.w3.org/2000/svg">
<path d="M15.27 18.77H8.72999C6.66999 18.77 4.99999 17.11 4.99999 15.07V5.7C4.99999 3.66 6.66999 2 8.72999 2H15.26C17.32 2 18.99 3.66 18.99 5.7V15.06C18.99 17.1 17.32 18.76 15.26 18.76L15.27 18.77ZM8.72999 2.95C7.18999 2.95 5.92999 4.19 5.92999 5.7V15.06C5.92999 16.58 7.18999 17.81 8.72999 17.81H15.26C16.8 17.81 18.06 16.58 18.06 15.06V5.7C18.06 4.18 16.8 2.95 15.26 2.95H8.72999Z" fill="black"/>
<path d="M5.46999 22C5.34999 22 5.22999 21.95 5.12999 21.85C4.94999 21.66 4.95999 21.36 5.13999 21.18L8.40999 17.95C8.58999 17.77 8.88999 17.77 9.06999 17.96C9.24999 18.15 9.23999 18.45 9.05999 18.63L5.78999 21.86C5.69999 21.95 5.57999 21.99 5.46999 21.99V22Z" fill="black"/>
<path d="M18.53 22C18.41 22 18.3 21.96 18.21 21.87L14.94 18.64C14.75 18.46 14.75 18.16 14.93 17.97C15.11 17.78 15.41 17.78 15.59 17.96L18.86 21.19C19.05 21.37 19.05 21.67 18.87 21.86C18.78 21.96 18.66 22.01 18.53 22.01V22Z" fill="black"/>
<path d="M8.72999 12.64C8.55999 12.64 8.39999 12.54 8.31999 12.38L5.04999 5.92C4.97999 5.77 4.97999 5.6 5.06999 5.45C5.14999 5.31 5.30999 5.22 5.46999 5.22H18.54C18.7 5.22 18.85 5.31 18.94 5.45C19.02 5.59 19.03 5.77 18.96 5.92L15.69 12.38C15.61 12.54 15.45 12.64 15.28 12.64H8.72999ZM14.98 11.69L17.76 6.19H6.22999L9.00999 11.69H14.98Z" fill="black"/>
<path d="M9.54999 15.07C9.54999 15.52 9.17999 15.88 8.72999 15.88C8.27999 15.88 7.90999 15.52 7.90999 15.07C7.90999 14.62 8.27999 14.26 8.72999 14.26C9.17999 14.26 9.54999 14.62 9.54999 15.07Z" fill="black"/>
<path d="M16.08 15.07C16.08 15.52 15.71 15.88 15.26 15.88C14.81 15.88 14.44 15.52 14.44 15.07C14.44 14.62 14.81 14.26 15.26 14.26C15.71 14.26 16.08 14.62 16.08 15.07Z" fill="black"/>
</svg>
