<svg width="24" height="24" viewBox="0 0 24 24" fill="none" xmlns="http://www.w3.org/2000/svg">
<path fill-rule="evenodd" clip-rule="evenodd" d="M15.8849 9.06499C15.6116 9.13894 15.3455 9.23827 15.09 9.36207C14.6398 9.58021 14.4573 10.1107 14.6824 10.547C14.9075 10.9833 15.4549 11.1602 15.9051 10.942C16.2576 10.7712 16.6432 10.6796 17.0353 10.673C17.0496 10.6728 17.0639 10.6722 17.0781 10.6713C18.5285 10.9322 19.5781 11.9964 19.9915 13.3109C20.4246 14.6878 20.1201 16.2134 18.9359 17.2146C18.9299 17.2196 18.924 17.2247 18.9182 17.2299C18.1866 17.8816 17.2249 18.2406 16.2243 18.2335L6.1444 18.2334C3.0495 17.994 3.04888 13.6435 6.14254 13.4024C6.14499 13.4024 6.14745 13.4025 6.1499 13.4025C6.53773 13.4076 6.9194 13.4986 7.2656 13.6688C7.71449 13.8895 8.26298 13.7157 8.49069 13.2807C8.7184 12.8457 8.53909 12.3142 8.0902 12.0935C7.69578 11.8996 7.27455 11.7656 6.84121 11.6947C6.41263 10.1861 6.64661 8.96339 7.20084 8.04221C7.83056 6.99553 8.92641 6.25145 10.171 5.93438C11.4156 5.6173 12.7443 5.74365 13.8186 6.35513C14.6996 6.85657 15.4713 7.71905 15.8849 9.06499ZM4.99372 11.8168C4.57162 10.032 4.85179 8.43962 5.62617 7.15248C6.53013 5.64999 8.05735 4.64641 9.70755 4.226C11.3577 3.8056 13.1955 3.95193 14.7417 4.83198C16.1664 5.6429 17.2691 7.03464 17.7548 9.00701C19.7869 9.50251 21.1865 11.0518 21.7351 12.7959C22.34 14.719 21.9495 17.0045 20.143 18.5382C19.072 19.4882 17.6692 20.0095 16.2142 19.9999H6.11033C6.08894 19.9999 6.06756 19.9991 6.04622 19.9977C1.02847 19.6548 0.677632 13.0371 4.99372 11.8168Z" fill="#5789AD"/>
<path d="M12.9001 13.7556C12.9001 14.2433 12.4921 14.6388 11.9888 14.6388C11.4854 14.6388 11.0774 14.2433 11.0774 13.7556C11.0774 13.2678 11.4854 12.8723 11.9888 12.8723C12.4921 12.8723 12.9001 13.2678 12.9001 13.7556Z" fill="#5789AD"/>
<path d="M16.5457 13.7556C16.5457 14.2433 16.1376 14.6388 15.6343 14.6388C15.1309 14.6388 14.7229 14.2433 14.7229 13.7556C14.7229 13.2678 15.1309 12.8723 15.6343 12.8723C16.1376 12.8723 16.5457 13.2678 16.5457 13.7556Z" fill="#5789AD"/>
</svg>
