<svg width="24" height="24" viewBox="0 0 24 24" fill="none" xmlns="http://www.w3.org/2000/svg">
<path fill-rule="evenodd" clip-rule="evenodd" d="M4.8 5.61118C4.8 4.62969 5.59518 3.81923 6.6 3.81923H17.4C18.4048 3.81923 19.2 4.62969 19.2 5.61118V15.5351C19.2 16.5095 18.4028 17.327 17.4 17.327H16.716C15.7632 17.327 14.8497 17.7006 14.1736 18.3828L14.1716 18.3848L12.6367 19.9179C12.2852 20.2686 11.7058 20.2686 11.3543 19.9179L9.8194 18.3848L9.81741 18.3828C9.1402 17.6995 8.21717 17.327 7.275 17.327H6.6C5.59518 17.327 4.8 16.5166 4.8 15.5351V5.61118ZM6.6 2C4.61682 2 3 3.60912 3 5.61118V15.5351C3 17.5371 4.61682 19.1463 6.6 19.1463H7.275C7.75391 19.1463 8.216 19.3371 8.5466 19.6712L8.55036 19.675L10.0897 21.2126C11.1422 22.2627 12.8491 22.2623 13.9016 21.2122L15.4407 19.675L15.4444 19.6712C15.7761 19.336 16.2297 19.1463 16.716 19.1463H17.4C19.3852 19.1463 21 17.5261 21 15.5351V5.61118C21 3.60912 19.3832 2 17.4 2H6.6ZM8.4 9.41337C8.4 9.06979 8.68106 8.78573 9.021 8.78573C9.36094 8.78573 9.642 9.06979 9.642 9.41337C9.642 9.73958 9.46812 9.96636 8.76483 10.4542C8.71376 10.4896 8.65874 10.527 8.60062 10.5664C8.01047 10.9666 7.10063 11.5836 6.75322 12.6488L6.7519 12.653C6.42611 13.6682 7.26582 14.5163 8.13 14.5163H10.542C11.0391 14.5163 11.442 14.1091 11.442 13.6067C11.442 13.1043 11.0391 12.6971 10.542 12.6971H8.80288C9.01814 12.4849 9.32603 12.2714 9.74378 11.9816L9.78342 11.9541C10.4144 11.5165 11.442 10.7972 11.442 9.41337C11.442 8.06506 10.3551 6.9665 9.021 6.9665C7.68694 6.9665 6.6 8.06506 6.6 9.41337C6.6 9.91574 7.00294 10.323 7.5 10.323C7.99706 10.323 8.4 9.91574 8.4 9.41337Z" fill="black"/>
<path fill-rule="evenodd" clip-rule="evenodd" d="M15.5026 7.01894C15.207 6.93455 14.8924 6.94836 14.6051 7.05834C14.3178 7.16832 14.0731 7.36865 13.9069 7.62983L13.8993 7.64202C13.2449 8.7077 12.5379 9.91693 11.9256 10.9727L11.9231 10.977C11.6626 11.4317 11.6626 12.0068 11.9231 12.4615C12.1886 12.925 12.6802 13.1974 13.197 13.1974H14.736V13.5976C14.736 14.1 15.1389 14.5072 15.636 14.5072C16.1331 14.5072 16.536 14.1 16.536 13.5976V13.1967C17.0164 13.1776 17.4 12.7779 17.4 12.2878C17.4 11.7976 16.9804 11.3972 16.5 11.3781V8.35821C16.5008 8.046 16.437 7.7889 16.2516 7.5391C16.0657 7.28863 15.804 7.10635 15.5063 7.01998L15.5026 7.01894ZM14.736 11.3781V9.74815C14.4124 10.2913 14.0874 10.8457 13.7774 11.3781H14.736Z" fill="black"/>
</svg>
