<svg width="24" height="24" viewBox="0 0 24 24" fill="none" xmlns="http://www.w3.org/2000/svg">
<path d="M21.4799 19.3513C20.2906 19.4113 19.6309 19.8811 19.0512 20.2809C18.4615 20.6907 17.9518 21.0505 16.8824 21.0505C15.813 21.0505 15.3032 20.6907 14.7135 20.2809C14.0839 19.8411 13.3643 19.3413 11.995 19.3413C10.6257 19.3413 9.90612 19.8411 9.27646 20.2809C8.68678 20.6907 8.17705 21.0505 7.10762 21.0505C6.03819 21.0505 5.52847 20.6907 4.93878 20.2809C4.3591 19.8711 3.69945 19.4113 2.51009 19.3513C2.24023 19.3513 2.02035 19.5412 2.01035 19.8011C2.00036 20.061 2.20025 20.2909 2.46011 20.3008C3.37962 20.3508 3.84937 20.6807 4.39907 21.0605C5.02874 21.5002 5.74835 22 7.11762 22C8.48688 22 9.2065 21.5002 9.83616 21.0605C10.4258 20.6507 10.9356 20.2909 12.005 20.2909C13.0744 20.2909 13.5842 20.6507 14.1738 21.0605C14.8035 21.5002 15.5231 22 16.8924 22C18.2616 22 18.9813 21.5002 19.6109 21.0605C20.1606 20.6807 20.6304 20.3508 21.5499 20.3008C21.8097 20.2909 22.0096 20.061 21.9996 19.8011C21.9896 19.5412 21.7598 19.3413 21.4999 19.3513H21.4799Z" fill="black"/>
<path d="M2.44012 17.0525C3.35963 17.1024 3.82938 17.4323 4.37908 17.8121C5.00875 18.2519 5.72836 18.7516 7.09763 18.7516C8.46689 18.7516 9.18651 18.2519 9.81617 17.8121C10.4059 17.4023 10.9156 17.0425 11.985 17.0425C13.0544 17.0425 13.5642 17.4023 14.1538 17.8121C14.7835 18.2519 15.5031 18.7516 16.8724 18.7516C18.2417 18.7516 18.9613 18.2519 19.5909 17.8121C20.1406 17.4323 20.6104 17.1024 21.5299 17.0525C21.7898 17.0425 21.9896 16.8126 21.9797 16.5527C21.9697 16.2929 21.7398 16.083 21.4799 16.1029C20.4305 16.1629 19.8008 16.5227 19.2711 16.8926C18.6115 13.4643 15.5531 10.8856 11.995 10.8856C8.43691 10.8856 5.37855 13.4643 4.7189 16.8926C4.17919 16.5227 3.54953 16.1629 2.50009 16.1029C2.25023 16.073 2.01035 16.2929 2.00036 16.5527C1.99036 16.8126 2.19026 17.0425 2.45012 17.0525H2.44012ZM11.985 11.8351C15.2233 11.8351 17.9718 14.2739 18.3816 17.4423C17.9918 17.6522 17.552 17.8021 16.8724 17.8021C15.803 17.8021 15.2932 17.4423 14.7036 17.0325C14.0739 16.5927 13.3543 16.093 11.985 16.093C10.6157 16.093 9.89613 16.5927 9.26647 17.0325C8.67678 17.4423 8.16705 17.8021 7.09763 17.8021C6.41799 17.8021 5.97823 17.6522 5.58844 17.4423C5.99822 14.2739 8.74674 11.8351 11.985 11.8351Z" fill="black"/>
<path d="M3.43959 2.95952C4.98876 2.95952 6.23809 4.2089 6.23809 5.75812C6.23809 6.01799 6.44798 6.23788 6.71783 6.23788C6.98769 6.23788 7.19757 6.02799 7.19757 5.75812C7.19757 4.21889 8.4569 2.95952 9.99607 2.95952C10.2559 2.95952 10.4758 2.74963 10.4758 2.47976C10.4758 2.2099 10.2659 2 9.99607 2C8.57683 2 7.35749 2.7996 6.71783 3.95902C6.07817 2.7996 4.85883 2 3.43959 2C3.17973 2 2.95984 2.2099 2.95984 2.47976C2.95984 2.74963 3.16973 2.95952 3.43959 2.95952Z" fill="black"/>
<path d="M13.9839 6.22789C15.5331 6.22789 16.7824 7.47726 16.7824 9.02649C16.7824 9.28636 16.9923 9.50625 17.2622 9.50625C17.532 9.50625 17.7419 9.29635 17.7419 9.02649C17.7419 7.48726 19.0012 6.22789 20.5404 6.22789C20.8003 6.22789 21.0202 6.01799 21.0202 5.74813C21.0202 5.47826 20.8103 5.26837 20.5404 5.26837C19.1212 5.26837 17.9018 6.06797 17.2622 7.22739C16.6225 6.06797 15.4032 5.26837 13.9839 5.26837C13.7241 5.26837 13.5042 5.47826 13.5042 5.74813C13.5042 6.01799 13.7141 6.22789 13.9839 6.22789Z" fill="black"/>
</svg>
