<svg width="24" height="24" viewBox="0 0 24 24" fill="none" xmlns="http://www.w3.org/2000/svg">
<path fill-rule="evenodd" clip-rule="evenodd" d="M15.1371 2.02629C16.2762 1.87808 17.4024 2.35839 18.5117 3.42045L18.5134 3.42204C19.626 4.49269 20.1657 5.61238 20.0854 6.78068C20.0085 7.90092 19.3722 8.83046 18.6836 9.5706L17.555 10.7861C17.4985 10.8722 17.4282 10.9476 17.3477 11.0094L11.2999 17.523C11.0689 17.7785 10.7658 17.9878 10.4871 18.1394C10.2039 18.2935 9.86978 18.4293 9.54753 18.4876L9.54154 18.4887L6.64492 18.9921C6.64482 18.9921 6.64501 18.9921 6.64492 18.9921C5.88234 19.1258 5.13397 18.9334 4.59582 18.4141C4.0585 17.8956 3.82941 17.1469 3.9145 16.3676L3.91481 16.3648L4.24781 13.3977L4.24989 13.3806C4.29269 13.054 4.40978 12.7102 4.54346 12.4186C4.67652 12.1282 4.86196 11.811 5.08904 11.565L5.09079 11.5631L11.2379 4.94255C11.2441 4.93574 11.2503 4.92902 11.2566 4.92239L12.4804 3.60435C13.1693 2.86395 14.0451 2.16837 15.1371 2.02629ZM11.4861 7.34223L6.40096 12.819C6.40074 12.8193 6.40052 12.8195 6.4003 12.8198C6.34828 12.8764 6.25961 13.0076 6.17479 13.1926C6.09226 13.3727 6.04751 13.5293 6.03498 13.6163L5.7035 16.5698C5.70345 16.5702 5.70341 16.5706 5.70337 16.571C5.67184 16.8624 5.7621 17.0154 5.83443 17.0852C5.90596 17.1542 6.05776 17.2365 6.33908 17.1872L9.23467 16.6839C9.31789 16.6684 9.46857 16.6166 9.6384 16.5242C9.81175 16.4299 9.92864 16.3349 9.97594 16.2821L9.98679 16.2702L15.0701 10.7954C14.2853 10.492 13.5615 10.0327 12.9434 9.43836C12.3219 8.84084 11.8284 8.12716 11.4861 7.34223ZM16.4575 9.30115C15.6056 9.13059 14.815 8.71807 14.1796 8.10713C13.5406 7.49266 13.0896 6.7074 12.8755 5.84579L13.7876 4.8635C13.7874 4.86369 13.7878 4.86332 13.7876 4.8635C13.7876 4.86346 13.7882 4.86288 13.7882 4.86283C14.3771 4.23001 14.8915 3.90471 15.3654 3.84305C15.7922 3.78752 16.4072 3.92068 17.2775 4.75359C18.1531 5.59649 18.3198 6.21652 18.2898 6.65297C18.2565 7.13763 17.9658 7.67792 17.3764 8.31145L16.4575 9.30115ZM3 21.0842C3 20.5785 3.40294 20.1684 3.9 20.1684H20.1C20.5971 20.1684 21 20.5785 21 21.0842C21 21.59 20.5971 22 20.1 22H3.9C3.40294 22 3 21.59 3 21.0842Z" fill="black"/>
</svg>
