<svg width="24" height="24" viewBox="0 0 24 24" fill="none" xmlns="http://www.w3.org/2000/svg">
<path d="M11.7048 2.46959C12.4454 1.95834 13.3988 1.87324 14.3224 2.17191L14.3247 2.17265L18.5087 3.50695C19.2358 3.74154 19.8491 4.2319 20.2769 4.79872C20.7047 5.36546 21 6.07888 21 6.81899V7.8813C21 8.81322 20.6172 9.65217 19.877 10.1644C19.1371 10.6766 18.1865 10.7608 17.2653 10.4684L13.0789 9.13327L13.0758 9.13227C12.8631 9.06365 12.6601 8.97315 12.4687 8.86525V17.4602C12.4687 18.6642 11.9699 19.819 11.082 20.6703C10.1942 21.5217 8.98998 22 7.73435 22C6.47872 22 5.27452 21.5217 4.38666 20.6703C3.4988 19.819 3 18.6642 3 17.4602C3 16.2562 3.4988 15.1015 4.38666 14.2501C5.27452 13.3987 6.47872 12.9204 7.73435 12.9204C8.76463 12.9204 9.76028 13.2425 10.575 13.8284V4.74885C10.575 4.6998 10.579 4.65165 10.5868 4.60471C10.6206 3.73218 11.0033 2.95385 11.7048 2.46959Z" fill="#0080AC"/>
</svg>
