<svg width="24" height="24" viewBox="0 0 24 24" fill="none" xmlns="http://www.w3.org/2000/svg">
<path d="M11.94 21.99C11.68 21.99 11.46 21.7801 11.46 21.5102V2.47976C11.46 2.21989 11.67 2 11.94 2C12.21 2 12.42 2.2099 12.42 2.47976V21.5202C12.42 21.7801 12.21 22 11.94 22V21.99Z" fill="black"/>
<path d="M21.52 18.3418C21.26 18.3418 21.04 18.1319 21.04 17.8621V6.12794C21.04 5.86807 21.25 5.64818 21.52 5.64818C21.79 5.64818 22 5.85807 22 6.12794V17.8621C22 18.1219 21.79 18.3418 21.52 18.3418Z" fill="black"/>
<path d="M16.79 15.4233C16.53 15.4233 16.31 15.2134 16.31 14.9435V8.92654C16.31 8.66667 16.52 8.44678 16.79 8.44678C17.06 8.44678 17.27 8.65667 17.27 8.92654V14.9435C17.27 15.2034 17.06 15.4233 16.79 15.4233Z" fill="black"/>
<path d="M2.48 18.3418C2.22 18.3418 2 18.1319 2 17.8621V6.12794C2 5.86807 2.21 5.64818 2.48 5.64818C2.75 5.64818 2.96 5.85807 2.96 6.12794V17.8621C2.96 18.1219 2.75 18.3418 2.48 18.3418Z" fill="black"/>
<path d="M7.27 15.4233C7.01 15.4233 6.79 15.2134 6.79 14.9435V8.92654C6.79 8.66667 7 8.44678 7.27 8.44678C7.54 8.44678 7.75 8.65667 7.75 8.92654V14.9435C7.75 15.2034 7.54 15.4233 7.27 15.4233Z" fill="black"/>
</svg>
