<svg width="24" height="24" viewBox="0 0 24 24" fill="none" xmlns="http://www.w3.org/2000/svg">
<path fill-rule="evenodd" clip-rule="evenodd" d="M3.75539 3.75539C5.04718 2.4636 6.95137 2 9.3 2H14.7C17.0486 2 18.9528 2.4636 20.2446 3.75539C21.5364 5.04718 22 6.95137 22 9.3V14.7C22 17.0486 21.5364 18.9528 20.2446 20.2446C18.9528 21.5364 17.0486 22 14.7 22H9.3C6.95137 22 5.04718 21.5364 3.75539 20.2446C2.4636 18.9528 2 17.0486 2 14.7V9.3C2 6.95137 2.4636 5.04718 3.75539 3.75539ZM5.16961 5.16961C4.4364 5.90282 4 7.14863 4 9.3V14.7C4 16.8514 4.4364 18.0972 5.16961 18.8304C5.90282 19.5636 7.14863 20 9.3 20H14.7C16.8514 20 18.0972 19.5636 18.8304 18.8304C19.5636 18.0972 20 16.8514 20 14.7V9.3C20 7.14863 19.5636 5.90282 18.8304 5.16961C18.0972 4.4364 16.8514 4 14.7 4H9.3C7.14863 4 5.90282 4.4364 5.16961 5.16961Z" fill="black"/>
</svg>
