<svg width="24" height="24" viewBox="0 0 24 24" fill="none" xmlns="http://www.w3.org/2000/svg">
<path fill-rule="evenodd" clip-rule="evenodd" d="M10.1292 2.00026C10.1541 2.00037 10.1777 2.00047 10.2 2.00047H13.8C13.8223 2.00047 13.8459 2.00037 13.8708 2.00026C14.2622 1.9985 14.9649 1.99535 15.5367 2.38041C16.0457 2.72313 16.3204 3.25345 16.4349 3.90636C17.6884 4.06128 18.8097 4.44942 19.6345 5.35C20.6186 6.42444 21 8.03165 21 10.1819V15.6362C21 17.4703 20.7886 19.1437 19.7648 20.3255C18.715 21.5373 17.0276 21.9995 14.7 21.9995H9.3C6.9724 21.9995 5.28496 21.5373 4.23518 20.3255C3.21142 19.1437 3 17.4703 3 15.6362V10.1819C3 8.03558 3.38163 6.42908 4.36505 5.35387C5.1896 4.45236 6.31059 4.06215 7.56509 3.90654C7.6795 3.25355 7.95426 2.72316 8.46327 2.38041C9.03511 1.99535 9.73776 1.9985 10.1292 2.00026ZM7.60313 5.73584C6.678 5.87383 6.0847 6.15299 5.6872 6.58759C5.16987 7.15321 4.8 8.18294 4.8 10.1819V15.6362C4.8 17.4382 5.03858 18.4919 5.58982 19.1283C6.11504 19.7345 7.1276 20.1814 9.3 20.1814H14.7C16.8724 20.1814 17.885 19.7345 18.4102 19.1283C18.9614 18.4919 19.2 17.4382 19.2 15.6362V10.1819C19.2 8.17778 18.8299 7.14876 18.3132 6.58464C17.92 6.15531 17.3348 5.87863 16.4246 5.73974C16.3708 5.98888 16.2793 6.24632 16.1238 6.4818C15.6514 7.19759 14.8189 7.45475 13.8 7.45475H10.2C10.1777 7.45475 10.1541 7.45485 10.1292 7.45497C9.73776 7.45672 9.03511 7.45987 8.46327 7.07481C8.00381 6.76543 7.73522 6.30316 7.60313 5.73584ZM14.7 4.74022C14.7 4.74424 14.7 4.74826 14.7 4.75227C14.6999 4.97896 14.6979 5.13751 14.6798 5.27505C14.6619 5.4101 14.6353 5.45939 14.6262 5.4733C14.6261 5.47336 14.6124 5.50374 14.5144 5.54223C14.4001 5.58714 14.183 5.63666 13.8 5.63666H10.2C9.96244 5.63666 9.79906 5.63522 9.65801 5.61622C9.5243 5.59822 9.4755 5.57134 9.46173 5.56207L9.46172 5.56206C9.461 5.56171 9.43117 5.54707 9.39349 5.44921C9.34902 5.33371 9.3 5.11451 9.3 4.72761C9.3 4.34071 9.34902 4.12151 9.39349 4.00601C9.43117 3.90815 9.461 3.89351 9.46172 3.89316L9.46173 3.89315C9.4755 3.88388 9.5243 3.85701 9.65801 3.839C9.79906 3.82 9.96244 3.81857 10.2 3.81857H13.8C14.0376 3.81857 14.2009 3.82 14.342 3.839C14.4757 3.85701 14.5245 3.88388 14.5383 3.89315L14.5383 3.89316C14.539 3.89352 14.5688 3.90817 14.6065 4.00601C14.651 4.12151 14.7 4.34071 14.7 4.72761C14.7 4.73184 14.7 4.73604 14.7 4.74022ZM15.1654 11.539C15.5169 11.894 15.5169 12.4696 15.1654 12.8246L11.5654 16.4608C11.3966 16.6312 11.1677 16.727 10.929 16.727C10.6903 16.727 10.4614 16.6312 10.2926 16.4608L8.9426 15.0972C8.59113 14.7422 8.59113 14.1666 8.9426 13.8116C9.29408 13.4566 9.86392 13.4566 10.2154 13.8116L10.929 14.5324L13.8926 11.539C14.2441 11.184 14.8139 11.184 15.1654 11.539Z" fill="black"/>
</svg>
