<svg width="24" height="24" viewBox="0 0 24 24" fill="none" xmlns="http://www.w3.org/2000/svg">
<path d="M16.73 18.3418C16.47 18.3418 16.25 18.1319 16.25 17.8621V6.12794C16.25 5.86807 16.46 5.64818 16.73 5.64818C17 5.64818 17.21 5.85807 17.21 6.12794V17.8621C17.21 18.1219 17 18.3418 16.73 18.3418Z" fill="black"/>
<path d="M7.21 18.3418C6.95 18.3418 6.73 18.1319 6.73 17.8621V6.12794C6.73 5.86807 6.94 5.64818 7.21 5.64818C7.48 5.64818 7.69 5.85807 7.69 6.12794V17.8621C7.69 18.1219 7.48 18.3418 7.21 18.3418Z" fill="black"/>
<path d="M11.94 21.99C11.68 21.99 11.46 21.7801 11.46 21.5102V2.47976C11.46 2.21989 11.67 2 11.94 2C12.21 2 12.42 2.2099 12.42 2.47976V21.5202C12.42 21.7801 12.21 22 11.94 22V21.99Z" fill="black"/>
<path d="M2.48 15.4233C2.22 15.4233 2 15.2134 2 14.9435V8.92654C2 8.66667 2.21 8.44678 2.48 8.44678C2.75 8.44678 2.96 8.65667 2.96 8.92654V14.9435C2.96 15.2034 2.75 15.4233 2.48 15.4233Z" fill="black"/>
<path d="M21.52 15.4233C21.26 15.4233 21.04 15.2134 21.04 14.9435V8.92654C21.04 8.66667 21.25 8.44678 21.52 8.44678C21.79 8.44678 22 8.65667 22 8.92654V14.9435C22 15.2034 21.79 15.4233 21.52 15.4233Z" fill="black"/>
</svg>
