<svg width="24" height="24" viewBox="0 0 24 24" fill="none" xmlns="http://www.w3.org/2000/svg">
<path d="M21.52 8.25001C19.77 8.25001 18.86 7.58001 18.06 7.00001C17.28 6.43001 16.6 5.93001 15.17 5.93001C13.74 5.93001 13.06 6.42001 12.28 7.00001C11.48 7.59001 10.57 8.25001 8.81999 8.25001C7.06999 8.25001 6.15999 7.58001 5.35999 7.00001C4.57999 6.42001 3.89999 5.93001 2.47999 5.93001C2.21999 5.93001 1.99999 5.72001 1.99999 5.47001C1.99999 5.22001 2.20999 5.01001 2.47999 5.01001C4.22999 5.01001 5.13999 5.68001 5.93999 6.26001C6.71999 6.83001 7.39999 7.33001 8.82999 7.33001C10.26 7.33001 10.94 6.83001 11.72 6.26001C12.52 5.67001 13.43 5.01001 15.18 5.01001C16.93 5.01001 17.84 5.68001 18.64 6.26001C19.42 6.83001 20.1 7.33001 21.53 7.33001C21.79 7.33001 22.01 7.54001 22.01 7.79001C22.01 8.04001 21.8 8.25001 21.53 8.25001H21.52Z" fill="black"/>
<path d="M21.52 18C19.77 18 18.86 17.33 18.06 16.75C17.28 16.18 16.6 15.68 15.17 15.68C13.74 15.68 13.06 16.17 12.28 16.75C11.48 17.34 10.57 18 8.81999 18C7.06999 18 6.15999 17.33 5.35999 16.75C4.57999 16.18 3.89999 15.68 2.46999 15.68C2.20999 15.68 1.98999 15.47 1.98999 15.22C1.98999 14.97 2.19999 14.76 2.46999 14.76C4.21999 14.76 5.12999 15.43 5.92999 16.01C6.70999 16.58 7.38999 17.08 8.81999 17.08C10.25 17.08 10.93 16.58 11.71 16.01C12.51 15.42 13.42 14.76 15.17 14.76C16.92 14.76 17.83 15.43 18.63 16.01C19.41 16.58 20.09 17.08 21.52 17.08C21.78 17.08 22 17.29 22 17.54C22 17.79 21.79 18 21.52 18Z" fill="black"/>
<path d="M21.52 13.12C19.77 13.12 18.86 12.45 18.06 11.87C17.28 11.3 16.6 10.8 15.17 10.8C13.74 10.8 13.06 11.29 12.28 11.87C11.48 12.46 10.57 13.12 8.81999 13.12C7.06999 13.12 6.15999 12.45 5.35999 11.87C4.57999 11.3 3.89999 10.8 2.46999 10.8C2.20999 10.8 1.98999 10.59 1.98999 10.34C1.98999 10.09 2.19999 9.88001 2.46999 9.88001C4.21999 9.88001 5.12999 10.55 5.92999 11.13C6.70999 11.7 7.38999 12.2 8.81999 12.2C10.25 12.2 10.93 11.7 11.71 11.13C12.51 10.54 13.42 9.88001 15.17 9.88001C16.92 9.88001 17.83 10.55 18.63 11.13C19.41 11.7 20.09 12.2 21.52 12.2C21.78 12.2 22 12.41 22 12.66C22 12.91 21.79 13.12 21.52 13.12Z" fill="black"/>
</svg>
