<svg width="24" height="24" viewBox="0 0 24 24" fill="none" xmlns="http://www.w3.org/2000/svg">
<path d="M20.5617 6.36638L19.5392 6.26165C19.7285 5.68086 19.7569 5.05247 19.5865 4.44312C19.3593 3.58622 18.8007 2.87214 18.0244 2.43417C16.4338 1.53919 14.3983 2.07237 13.4799 3.62431L3.06558 21.2764C2.93303 21.5049 3.00877 21.7905 3.22653 21.9334C3.30227 21.981 3.38747 22 3.46321 22C3.62416 22 3.78511 21.9143 3.87032 21.7715L5.88692 18.3629H11.1982L12.1545 20.3243C12.2397 20.4957 12.4006 20.5909 12.5805 20.5909C12.6468 20.5909 12.7225 20.5718 12.7888 20.5433C13.0255 20.429 13.1201 20.1434 13.0065 19.9054L12.2397 18.3249C13.0255 18.2487 13.7923 18.0678 14.5119 17.7726L15.7427 20.2957C15.8279 20.4671 15.9888 20.5623 16.1687 20.5623C16.235 20.5623 16.3107 20.5433 16.377 20.5147C16.6137 20.4005 16.7084 20.1148 16.5948 19.8768L15.3734 17.3632C16.074 16.9729 16.7084 16.4873 17.2764 15.8875C18.6776 14.4022 19.4256 12.4789 19.3782 10.4509C19.3498 9.50834 19.151 8.59431 18.7912 7.72789L19.1131 7.17567L20.4765 7.31849C20.4765 7.31849 20.5143 7.31849 20.5238 7.31849C20.7605 7.31849 20.9688 7.13759 20.9972 6.89004C21.0256 6.63297 20.8362 6.39494 20.5806 6.36638H20.5617ZM12.0882 7.86119C13.887 9.47025 13.6787 11.4316 13.3758 12.498C12.6657 15.0115 10.2799 17.1538 7.95085 17.3728C7.93191 17.3728 7.91298 17.3823 7.89404 17.3918H6.45497L12.0882 7.86119ZM16.5758 15.221C15.2882 16.573 13.5462 17.3442 11.6621 17.3918H10.6491C12.3249 16.3826 13.745 14.6688 14.2847 12.755C14.9095 10.5461 14.2847 8.48006 12.571 7.03285L14.3036 4.10988C14.9663 2.99591 16.4243 2.61507 17.5699 3.2625C18.119 3.5767 18.5167 4.08132 18.6776 4.69067C18.8386 5.28097 18.7534 5.89984 18.4409 6.4235L17.8445 7.44226C17.8445 7.44226 17.8445 7.47082 17.835 7.48035C17.8161 7.50891 17.8066 7.53747 17.8066 7.57556C17.8066 7.60412 17.7971 7.63268 17.7971 7.66125C17.7971 7.68981 17.7971 7.71837 17.7971 7.74694C17.7971 7.7755 17.8066 7.81358 17.8161 7.84215C17.8161 7.85167 17.8161 7.87071 17.8255 7.88023C18.2042 8.69904 18.4031 9.57498 18.422 10.47C18.4693 12.2314 17.8161 13.9261 16.5853 15.221H16.5758Z" fill="black"/>
<path d="M16.4906 5.41427C16.752 5.41427 16.964 5.20113 16.964 4.93822C16.964 4.6753 16.752 4.46216 16.4906 4.46216C16.2292 4.46216 16.0172 4.6753 16.0172 4.93822C16.0172 5.20113 16.2292 5.41427 16.4906 5.41427Z" fill="black"/>
</svg>
