<svg width="24" height="24" viewBox="0 0 24 24" fill="none" xmlns="http://www.w3.org/2000/svg">
<path d="M21.5283 22H2.48996C2.30997 22 2.14999 21.9 2.06999 21.7501C1.99 21.6002 2 21.4103 2.08999 21.2604L11.6092 7.05747C11.7892 6.7976 12.2191 6.7976 12.3991 7.05747L21.9183 21.2604C22.0183 21.4103 22.0283 21.5902 21.9383 21.7501C21.8483 21.91 21.6983 22 21.5183 22H21.5283ZM3.36988 21.0505H20.6284L12.0092 8.17691L3.37988 21.0505H3.36988Z" fill="black"/>
<path d="M13.619 15.7031C13.499 15.7031 13.379 15.6532 13.279 15.5632L11.9992 14.2839L10.7193 15.5632C10.5293 15.7531 10.2293 15.7531 10.0493 15.5632L7.83951 13.3543C7.64952 13.1644 7.64952 12.8646 7.83951 12.6847C8.02949 12.5047 8.32946 12.4948 8.50945 12.6847L10.3793 14.5537L11.6592 13.2744C11.8492 13.0845 12.1491 13.0845 12.3291 13.2744L13.609 14.5537L15.4789 12.6847C15.6688 12.4948 15.9688 12.4948 16.1488 12.6847C16.3288 12.8746 16.3388 13.1744 16.1488 13.3543L13.939 15.5632C13.849 15.6532 13.729 15.7031 13.599 15.7031H13.619ZM4.08982 7.7971C2.93992 7.7971 2 6.85757 2 5.70815C2 4.70865 2.70994 3.85907 3.65986 3.65917C3.85984 2.70965 4.69977 2 5.70969 2C6.7196 2 7.55953 2.70965 7.75951 3.65917C8.70943 3.85907 9.41937 4.69865 9.41937 5.70815C9.41937 6.85757 8.47945 7.7971 7.32955 7.7971H4.08982ZM5.70969 2.95952C5.07974 2.95952 4.56978 3.46927 4.56978 4.09895C4.56978 4.35882 4.3598 4.57871 4.08982 4.57871C3.45988 4.57871 2.94992 5.08846 2.94992 5.71814C2.94992 6.34783 3.45988 6.85757 4.08982 6.85757H7.31955C7.9495 6.85757 8.45945 6.34783 8.45945 5.71814C8.45945 5.08846 7.9495 4.57871 7.31955 4.57871C7.05957 4.57871 6.83959 4.36882 6.83959 4.09895C6.83959 3.46927 6.32963 2.95952 5.69969 2.95952H5.70969Z" fill="black"/>
</svg>
