<svg width="34" height="34" viewBox="0 0 34 34" fill="none" xmlns="http://www.w3.org/2000/svg">
<path fill-rule="evenodd" clip-rule="evenodd" d="M9.11267 5.92994C7.83071 6.71082 6.8 8.53369 6.8 11.6209V22.3791C6.8 25.4663 7.83071 27.2891 9.11267 28.07C10.3737 28.8381 12.3378 28.8737 14.8426 27.35L23.7002 21.9709C26.1972 20.452 27.2 18.6112 27.2 17C27.2 15.3889 26.1973 13.5481 23.7005 12.0292C23.7004 12.0291 23.7006 12.0293 23.7005 12.0292L14.8435 6.65043C12.3386 5.12671 10.3737 5.16183 9.11267 5.92994ZM16.1575 4.44313C13.1732 2.62802 10.1499 2.2904 7.79576 3.72442C5.46233 5.14578 4.25 8.0296 4.25 11.6209V22.3791C4.25 25.9704 5.46233 28.8542 7.79576 30.2755C10.1502 31.7097 13.1737 31.3719 16.1583 29.5563L25.015 24.1778C28.0073 22.3575 29.75 19.7933 29.75 17C29.75 14.2067 28.0081 11.643 25.0158 9.8227L16.1575 4.44313Z" fill="#FCFDFD"/>
</svg>
