<svg width="24" height="24" viewBox="0 0 24 24" fill="none" xmlns="http://www.w3.org/2000/svg">
<path fill-rule="evenodd" clip-rule="evenodd" d="M3.51627 3.57889C4.50516 2.54916 5.88432 2 7.45455 2H16.5455C18.1157 2 19.4948 2.54916 20.4837 3.57889C21.4726 4.60862 22 6.04475 22 7.67982V13.3596C22 14.9947 21.4726 16.4308 20.4837 17.4606C19.6907 18.2863 18.6468 18.803 17.4545 18.9754V20.1088C17.4546 20.4509 17.3655 20.787 17.1968 21.0805C17.028 21.3741 16.7858 21.6146 16.4961 21.7761C16.2064 21.9377 15.88 22.0143 15.5517 21.9978C15.2237 21.9813 14.9062 21.8726 14.6329 21.6831L10.8162 19.0395H7.45455C5.88432 19.0395 4.50516 18.4903 3.51627 17.4606C2.52738 16.4308 2 14.9947 2 13.3596V7.67982C2 6.04475 2.52738 4.60862 3.51627 3.57889ZM7.90909 10.586C7.90909 10.0632 8.3161 9.63936 8.81818 9.63936H15.1818C15.6839 9.63936 16.0909 10.0632 16.0909 10.586C16.0909 11.1088 15.6839 11.5326 15.1818 11.5326H8.81818C8.3161 11.5326 7.90909 11.1088 7.90909 10.586Z" fill="#0080AC"/>
</svg>
