<svg width="24" height="24" viewBox="0 0 24 24" fill="none" xmlns="http://www.w3.org/2000/svg">
<path d="M8.76662 22C8.69665 22 8.62669 21.98 8.55672 21.95C8.31684 21.8299 8.22689 21.5498 8.34683 21.3097L9.61619 18.7684H7.15742C6.98751 18.7684 6.83758 18.6783 6.74763 18.5383C6.65767 18.3982 6.65767 18.2181 6.72764 18.078L8.33683 14.8464C8.45677 14.6063 8.73663 14.5163 8.97651 14.6363C9.21639 14.7564 9.30635 15.0365 9.18641 15.2766L7.91704 17.8179H10.3758C10.5457 17.8179 10.6957 17.908 10.7856 18.048C10.8756 18.1881 10.8756 18.3682 10.8056 18.5083L9.1964 21.7399C9.11644 21.91 8.94653 22 8.76662 22Z" fill="black"/>
<path d="M15.2234 22C15.1534 22 15.0835 21.98 15.0135 21.95C14.7736 21.8299 14.6837 21.5498 14.8036 21.3097L16.073 18.7684H13.6142C13.4443 18.7684 13.2944 18.6783 13.2044 18.5383C13.1144 18.3982 13.1144 18.2181 13.1844 18.078L14.7936 14.8464C14.9135 14.6063 15.1934 14.5163 15.4333 14.6363C15.6732 14.7564 15.7631 15.0365 15.6432 15.2766L14.3738 17.8179H16.8326C17.0025 17.8179 17.1524 17.908 17.2424 18.048C17.3323 18.1881 17.3323 18.3682 17.2624 18.5083L15.6532 21.7399C15.5732 21.91 15.4033 22 15.2234 22Z" fill="black"/>
<path d="M19.2514 12.6353H4.73863C3.17941 12.6353 2 11.3847 2 9.73387C2 8.24312 2.95952 7.08254 4.28886 6.87244C4.50875 5.03152 6.06797 3.61081 7.96702 3.61081C8.72664 3.61081 9.46627 3.84092 10.086 4.28114C11.0755 2.86043 12.6947 2 14.4238 2C17.2024 2 19.5012 4.15108 19.7211 6.88244C21.0505 7.10255 22 8.26313 22 9.74388C22 11.3947 20.8206 12.6453 19.2614 12.6453L19.2514 12.6353ZM7.95702 4.56128C6.43778 4.56128 5.2084 5.7919 5.2084 7.31266C5.2084 7.57279 4.9985 7.7929 4.72864 7.7929C3.69915 7.7929 2.94953 8.61331 2.94953 9.74388C2.94953 10.8744 3.69915 11.6949 4.72864 11.6949H19.2514C20.2809 11.6949 21.0305 10.8744 21.0305 9.74388C21.0305 8.61331 20.2809 7.7929 19.2514 7.7929C18.9915 7.7929 18.7716 7.58279 18.7716 7.31266C18.7716 4.90145 16.8126 2.94047 14.4038 2.94047C12.8346 2.94047 11.3753 3.81091 10.5957 5.21161C10.5257 5.34167 10.3958 5.43172 10.2459 5.45173C10.096 5.47174 9.95602 5.43172 9.84608 5.32166C9.32634 4.82141 8.65667 4.55128 7.94703 4.55128L7.95702 4.56128Z" fill="black"/>
</svg>
