<svg width="24" height="24" viewBox="0 0 24 24" fill="none" xmlns="http://www.w3.org/2000/svg">
<path d="M16.8326 22C16.5727 22 16.3528 21.7901 16.3528 21.5202V16.6827C16.3528 14.2739 14.3938 12.3148 11.985 12.3148C9.57621 12.3148 7.61719 14.2739 7.61719 16.6827V21.5202C7.61719 21.7801 7.4073 22 7.13743 22C6.86757 22 6.65767 21.7901 6.65767 21.5202V16.6827C6.65767 13.7541 9.04648 11.3653 11.975 11.3653C14.9035 11.3653 17.2924 13.7541 17.2924 16.6827V21.5202C17.2924 21.7801 17.0825 22 16.8126 22H16.8326Z" fill="black"/>
<path d="M3.92904 22C3.66917 22 3.44928 21.7901 3.44928 21.5202V8.93653C3.44928 8.67666 3.65917 8.45677 3.92904 8.45677C4.1989 8.45677 4.4088 8.66667 4.4088 8.93653V21.5202C4.4088 21.7801 4.1989 22 3.92904 22Z" fill="black"/>
<path d="M20.061 22C19.8011 22 19.5812 21.7901 19.5812 21.5202V8.93653C19.5812 8.67666 19.7911 8.45677 20.061 8.45677C20.3308 8.45677 20.5407 8.66667 20.5407 8.93653V21.5202C20.5407 21.7801 20.3308 22 20.061 22Z" fill="black"/>
<path d="M2.47976 22C2.21989 22 2 21.7901 2 21.5202C2 21.2504 2.2099 21.0405 2.47976 21.0405H21.5202C21.7801 21.0405 22 21.2504 22 21.5202C22 21.7901 21.7901 22 21.5202 22H2.47976Z" fill="black"/>
<path d="M11.995 20.3908C10.8456 20.3908 9.90605 19.4513 9.90605 18.3018C9.90605 17.3123 11.3253 15.2134 11.6052 14.8036C11.6952 14.6737 11.8451 14.5937 11.995 14.5937C12.1549 14.5937 12.2949 14.6737 12.3848 14.8036C12.6647 15.2134 14.084 17.3123 14.084 18.3018C14.084 19.4513 13.1444 20.3908 11.995 20.3908ZM11.995 15.943C11.4353 16.8226 10.8556 17.8921 10.8556 18.3018C10.8556 18.9315 11.3653 19.4413 11.995 19.4413C12.6247 19.4413 13.1344 18.9315 13.1344 18.3018C13.1344 17.8921 12.5547 16.8226 11.995 15.943Z" fill="black"/>
<path d="M21.5102 9.41629H2.47976C2.21989 9.41629 2 9.2064 2 8.93653V5.70815C2 5.44828 2.2099 5.22839 2.47976 5.22839H4.08896C5.6082 5.22839 6.83758 3.999 6.83758 2.47976C6.83758 2.21989 7.04748 2 7.31734 2H16.6727C16.9325 2 17.1524 2.2099 17.1524 2.47976C17.1524 3.999 18.3818 5.22839 19.901 5.22839H21.5102C21.7701 5.22839 21.99 5.43828 21.99 5.70815V8.93653C21.99 9.1964 21.7801 9.41629 21.5102 9.41629ZM2.94953 8.46677H21.0405V6.18791H19.901C18.022 6.18791 16.4628 4.77861 16.2329 2.95952H7.75712C7.52724 4.77861 5.96802 6.18791 4.08896 6.18791H2.94953V8.46677Z" fill="black"/>
<path d="M13.6042 6.18791H10.3758C10.1159 6.18791 9.89605 5.97801 9.89605 5.70815C9.89605 5.43828 10.1059 5.22839 10.3758 5.22839H13.6042C13.8641 5.22839 14.084 5.43828 14.084 5.70815C14.084 5.97801 13.8741 6.18791 13.6042 6.18791Z" fill="black"/>
<path d="M7.31734 2.95952H5.70815C5.44828 2.95952 5.22839 2.74963 5.22839 2.47976C5.22839 2.2099 5.43828 2 5.70815 2H7.31734C7.57721 2 7.7971 2.2099 7.7971 2.47976C7.7971 2.74963 7.58721 2.95952 7.31734 2.95952Z" fill="black"/>
<path d="M18.2919 2.95952H16.6827C16.4228 2.95952 16.2029 2.74963 16.2029 2.47976C16.2029 2.2099 16.4128 2 16.6827 2H18.2919C18.5517 2 18.7716 2.2099 18.7716 2.47976C18.7716 2.74963 18.5617 2.95952 18.2919 2.95952Z" fill="black"/>
</svg>
