<svg width="24" height="24" viewBox="0 0 24 24" fill="none" xmlns="http://www.w3.org/2000/svg">
<path fill-rule="evenodd" clip-rule="evenodd" d="M11.2287 4.6388C11.2285 4.63907 11.2288 4.63854 11.2287 4.6388L9.63139 7.85768C9.44076 8.24776 9.1283 8.57179 8.81651 8.80472C8.5036 9.0385 8.10691 9.24364 7.6878 9.31535L7.68461 9.3159L4.78589 9.80116C4.01694 9.9304 3.85584 10.2193 3.83227 10.2937C3.80842 10.3689 3.77411 10.6991 4.32485 11.254L6.57875 13.525C6.9058 13.8546 7.11789 14.2871 7.23359 14.6944C7.34941 15.102 7.39576 15.5798 7.29553 16.0304L7.29418 16.0364L6.64889 18.8478C6.41329 19.8736 6.68135 20.1257 6.68765 20.1304C6.69467 20.1355 7.01623 20.3157 7.91704 19.777L7.9179 19.7765L10.6412 18.1521C11.0619 17.9054 11.5564 17.8081 12.0014 17.8081C12.4456 17.8081 12.9413 17.9051 13.3611 18.1558L16.0774 19.776C16.9866 20.317 17.3076 20.1369 17.3121 20.1336C17.315 20.1315 17.5837 19.8825 17.347 18.8473C17.347 18.8472 17.347 18.8473 17.347 18.8473L16.7005 16.0304C16.6002 15.5798 16.6466 15.102 16.7624 14.6944C16.8781 14.2871 17.0902 13.8546 17.4173 13.525L19.6712 11.254L19.6734 11.2518C20.2277 10.697 20.191 10.3684 20.1677 10.2953C20.1437 10.2202 19.9804 9.93063 19.2106 9.80124L16.3114 9.31589C15.8887 9.2449 15.4889 9.0407 15.1732 8.80599C14.8592 8.57247 14.5463 8.24804 14.3555 7.85768L12.7574 4.63709L12.7565 4.63537C12.3905 3.8939 12.0624 3.8315 11.9969 3.8315C11.9297 3.8315 11.5991 3.89667 11.2287 4.6388ZM14.3836 3.81883C13.8861 2.81165 13.0738 2 11.9969 2C10.9212 2 10.1065 2.81011 9.60461 3.81631L9.60376 3.81802L8.00422 7.04146L8.00091 7.04818C7.97325 7.10509 7.88687 7.21924 7.73391 7.33352C7.58184 7.44713 7.44748 7.49846 7.38448 7.50953C7.38415 7.50959 7.38382 7.50965 7.3835 7.5097L4.48753 7.99451C3.40287 8.17666 2.42253 8.72117 2.10075 9.73652C1.77924 10.751 2.26343 11.767 3.03957 12.5491L5.29347 14.8201C5.34813 14.8752 5.43141 15.0058 5.48612 15.1984C5.54025 15.389 5.5398 15.5466 5.52232 15.6278C5.52217 15.6285 5.52202 15.6291 5.52188 15.6298L4.878 18.435C4.87799 18.435 4.87801 18.4349 4.878 18.435C4.60468 19.6252 4.67287 20.9163 5.61626 21.6099C6.55872 22.3028 7.79992 21.9765 8.84383 21.3525C8.84411 21.3524 8.8444 21.3522 8.84469 21.352L11.5553 19.7352C11.556 19.7348 11.5567 19.7344 11.5574 19.7339C11.6372 19.6879 11.7961 19.6396 12.0014 19.6396C12.2093 19.6396 12.3635 19.6891 12.4344 19.7314L15.1522 21.3525C16.1964 21.974 17.4399 22.3062 18.3828 21.6136C19.3274 20.9197 19.3903 19.6257 19.1182 18.4358L18.4741 15.6298C18.474 15.6292 18.4739 15.6285 18.4737 15.6279C18.4562 15.5467 18.4557 15.389 18.5099 15.1984C18.5646 15.0058 18.6479 14.8752 18.7025 14.8201L20.9542 12.5513C20.9547 12.5508 20.9551 12.5504 20.9556 12.5499C21.7365 11.7678 22.2223 10.7509 21.8981 9.73486C21.5745 8.72027 20.5927 8.17658 19.5089 7.99458L16.6098 7.50924C16.6097 7.50923 16.6098 7.50924 16.6098 7.50924C16.5417 7.49777 16.4047 7.44546 16.2524 7.33225C16.0995 7.21856 16.0135 7.10481 15.986 7.04818L14.384 3.81974C14.3839 3.81944 14.3837 3.81913 14.3836 3.81883Z" fill="black"/>
</svg>
