<svg width="24" height="24" viewBox="0 0 24 24" fill="none" xmlns="http://www.w3.org/2000/svg">
<path fill-rule="evenodd" clip-rule="evenodd" d="M15.3019 3.39692C14.375 2.48108 13.1316 1.97907 11.8442 2.00067C9.15067 2.00512 6.98342 4.23938 6.98274 6.98773C6.97949 8.27864 7.46668 9.5202 8.34124 10.4497C9.21609 11.3794 10.4099 11.9239 11.6698 11.9677C11.7069 11.969 11.7441 11.9679 11.7812 11.9645C11.8285 11.9601 11.8787 11.9608 11.9065 11.9637C11.9414 11.9673 11.9765 11.9687 12.0117 11.9681C13.3019 11.9442 14.5301 11.3963 15.426 10.4448C16.3219 9.49337 16.8121 8.2163 16.7889 6.89455C16.7656 5.57281 16.2307 4.31467 15.3019 3.39692ZM14.059 4.7169C13.4719 4.13682 12.684 3.8194 11.8684 3.83447L11.8523 3.83462C10.1459 3.83462 8.77302 5.24752 8.77302 6.98903V6.99164C8.77076 7.80649 9.07819 8.59024 9.63022 9.17693C10.1716 9.75229 10.9065 10.0938 11.6845 10.1329C11.7947 10.1256 11.9106 10.1254 12.0215 10.1334C12.8216 10.1073 13.581 9.76266 14.1375 9.17164C14.7037 8.57025 15.0136 7.76305 14.9989 6.92763C14.9842 6.0922 14.6461 5.29698 14.059 4.7169Z" fill="#5789AD"/>
<path fill-rule="evenodd" clip-rule="evenodd" d="M16.9765 13.6718C15.5718 12.711 13.7661 12.2594 12.0067 12.2594C10.2466 12.2594 8.4376 12.7113 7.02515 13.6707L7.02187 13.6729C5.75334 14.5428 5 15.7782 5 17.1297C5 18.4813 5.75351 19.7147 7.02276 20.5802C8.43157 21.5456 10.2395 22 12 22C13.7608 22 15.5692 21.5453 16.9781 20.5796C18.2467 19.7097 19 18.4743 19 17.1228C19 15.7709 18.2462 14.5373 16.9765 13.6718ZM6.79028 17.1297C6.79028 16.5307 7.11966 15.8134 8.01616 15.198C9.07414 14.48 10.5182 14.0933 12.0067 14.0933C13.4963 14.0933 14.9352 14.4806 15.983 15.1975L15.9844 15.1984C16.8806 15.8092 17.2097 16.524 17.2097 17.1228C17.2097 17.7222 16.88 18.4399 15.9824 19.0555C14.9297 19.777 13.4885 20.166 12 20.166C10.5115 20.166 9.07033 19.777 8.01761 19.0555L8.01564 19.0541C7.1194 18.4433 6.79028 17.7285 6.79028 17.1297Z" fill="#5789AD"/>
</svg>
