<svg width="24" height="24" viewBox="0 0 24 24" fill="none" xmlns="http://www.w3.org/2000/svg">
<path fill-rule="evenodd" clip-rule="evenodd" d="M6.43248 4.18585C5.52756 4.73706 4.8 6.02379 4.8 8.203V15.797C4.8 17.9762 5.52756 19.2629 6.43248 19.8141C7.32258 20.3563 8.70905 20.3815 10.4772 19.3059L16.7295 15.5089C18.4921 14.4367 19.2 13.1373 19.2 12C19.2 10.8627 18.4922 9.5634 16.7297 8.49121C16.7297 8.49117 16.7298 8.49125 16.7297 8.49121L10.4777 4.69443C8.70963 3.61887 7.32258 3.64366 6.43248 4.18585ZM11.4053 3.13634C9.29871 1.85509 7.16467 1.61677 5.50289 2.62901C3.85576 3.63233 3 5.66797 3 8.203V15.797C3 18.332 3.85576 20.3677 5.50289 21.371C7.16482 22.3833 9.2991 22.1449 11.4058 20.8633L17.6576 17.0667C19.7699 15.7818 21 13.9718 21 12C21 10.0282 19.7704 8.21859 17.6582 6.93368L11.4053 3.13634Z" fill="black"/>
</svg>
