<svg width="24" height="24" viewBox="0 0 24 24" fill="none" xmlns="http://www.w3.org/2000/svg">
<path d="M12 22C6.49 22 2 17.51 2 12C2 6.49 6.49 2 12 2C17.51 2 22 6.49 22 12C22 17.51 17.51 22 12 22ZM12 19.46C12.26 19.46 12.48 19.67 12.48 19.94V21.04C17.09 20.8 20.8 17.09 21.04 12.48H19.94C19.68 12.48 19.46 12.27 19.46 12C19.46 11.73 19.67 11.52 19.94 11.52H21.04C20.8 6.91 17.09 3.2 12.48 2.96V4.06C12.48 4.32 12.27 4.54 12 4.54C11.73 4.54 11.52 4.33 11.52 4.06V2.96C6.91 3.21 3.21 6.91 2.96 11.52H4.06C4.32 11.52 4.54 11.73 4.54 12C4.54 12.27 4.33 12.48 4.06 12.48H2.96C3.2 17.09 6.91 20.8 11.52 21.04V19.94C11.52 19.68 11.73 19.46 12 19.46ZM15.17 15.65C15.05 15.65 14.93 15.6 14.83 15.51L11.66 12.34C11.57 12.25 11.52 12.13 11.52 12V7.24C11.52 6.98 11.73 6.76 12 6.76C12.27 6.76 12.48 6.97 12.48 7.24V11.8L15.52 14.84C15.71 15.03 15.71 15.33 15.52 15.51C15.43 15.6 15.31 15.65 15.18 15.65H15.17Z" fill="black"/>
</svg>
