<svg width="24" height="24" viewBox="0 0 24 24" fill="none" xmlns="http://www.w3.org/2000/svg">
<path d="M6.87685 22C6.8069 22 6.74694 21.99 6.67698 21.96L2.27978 19.95C2.03993 19.84 1.94 19.56 2.03993 19.32C2.14986 19.08 2.42969 18.98 2.66953 19.08L7.07673 21.09C7.31657 21.2 7.41651 21.48 7.31657 21.72C7.23663 21.9 7.06673 22 6.88685 22H6.87685Z" fill="black"/>
<path d="M4.67825 21C4.61829 21 4.54834 20.99 4.48838 20.96C4.24853 20.85 4.1386 20.57 4.23853 20.33L6.41715 15.35C6.51708 15.11 6.8069 15 7.04675 15.1C7.28659 15.21 7.39652 15.49 7.29659 15.73L5.11797 20.71C5.03803 20.89 4.86813 21 4.67825 21Z" fill="black"/>
<path d="M8.75566 16.5C8.12606 16.5 7.4265 16.32 6.65699 15.97C4.51836 14.99 3.72886 13.47 4.48838 11.8C4.61829 11.51 4.79818 11.23 4.99805 10.98L8.6957 6.49C8.86559 6.29 9.1654 6.26 9.36527 6.43C9.56514 6.6 9.59512 6.9 9.42523 7.1L5.72759 11.59C5.57768 11.78 5.44776 11.98 5.34783 12.2C4.80817 13.37 5.3878 14.35 7.04675 15.11C7.82625 15.47 8.5358 15.61 9.07545 15.53C9.65508 15.44 10.0748 15.1 10.3546 14.49C10.4546 14.27 10.5245 14.04 10.5645 13.8L11.5239 8.06C11.5639 7.8 11.8137 7.62 12.0735 7.67C12.3334 7.71 12.5033 7.96 12.4633 8.22L11.5039 13.96C11.4539 14.28 11.354 14.59 11.2241 14.89C10.8143 15.79 10.1248 16.34 9.22536 16.48C9.07545 16.5 8.91556 16.51 8.75566 16.51V16.5Z" fill="black"/>
<path d="M11.1741 13.55C11.1042 13.55 11.0442 13.54 10.9742 13.51L5.67762 11.1C5.43777 10.99 5.33783 10.71 5.43777 10.47C5.5477 10.23 5.82752 10.12 6.06737 10.23L11.364 12.64C11.6038 12.75 11.7038 13.03 11.6038 13.27C11.5239 13.45 11.354 13.55 11.1741 13.55Z" fill="black"/>
<path d="M12.0036 8.61C11.9336 8.61 11.8737 8.6 11.8037 8.57L8.86559 7.23C8.62574 7.12 8.5258 6.84 8.62574 6.6C8.73567 6.36 9.01549 6.25 9.25534 6.36L12.1935 7.7C12.4333 7.81 12.5333 8.09 12.4333 8.33C12.3534 8.51 12.1835 8.61 12.0036 8.61Z" fill="black"/>
<path d="M17.1103 22C16.9305 22 16.7606 21.9 16.6806 21.72C16.5707 21.48 16.6806 21.2 16.9205 21.09L21.3277 19.08C21.5675 18.97 21.8473 19.08 21.9573 19.32C22.0672 19.56 21.9573 19.84 21.7174 19.95L17.3102 21.96C17.2502 21.99 17.1803 22 17.1103 22Z" fill="black"/>
<path d="M19.3089 21C19.1291 21 18.9492 20.89 18.8692 20.71L16.6906 15.73C16.5807 15.49 16.6906 15.21 16.9404 15.1C17.1803 14.99 17.4601 15.1 17.57 15.35L19.7487 20.33C19.8586 20.57 19.7487 20.85 19.4988 20.96C19.4389 20.99 19.3689 21 19.3089 21Z" fill="black"/>
<path d="M15.2315 16.5C15.0716 16.5 14.9117 16.49 14.7618 16.47C13.8624 16.33 13.1728 15.78 12.7631 14.88C12.6332 14.59 12.5333 14.27 12.4833 13.95L11.5239 8.21C11.4839 7.95 11.6538 7.71 11.9136 7.66C12.1735 7.61 12.4133 7.79 12.4633 8.05L13.4227 13.79C13.4627 14.03 13.5326 14.26 13.6326 14.48C13.9124 15.09 14.3321 15.44 14.9117 15.52C15.4614 15.61 16.1609 15.46 16.9404 15.1C18.5994 14.34 19.169 13.36 18.6394 12.19C18.5394 11.97 18.4095 11.76 18.2596 11.58L14.562 7.09C14.3921 6.89 14.422 6.59 14.6219 6.42C14.8218 6.25 15.1216 6.28 15.2915 6.48L18.9891 10.97C19.199 11.22 19.3689 11.5 19.4988 11.79C20.2583 13.47 19.4688 14.99 17.3302 15.96C16.5607 16.31 15.8611 16.49 15.2315 16.49V16.5Z" fill="black"/>
<path d="M12.8131 13.55C12.6332 13.55 12.4633 13.45 12.3833 13.27C12.2734 13.03 12.3833 12.75 12.6232 12.64L17.9198 10.23C18.1597 10.12 18.4395 10.23 18.5494 10.47C18.6593 10.71 18.5494 10.99 18.3096 11.1L13.0129 13.51C12.953 13.54 12.883 13.55 12.8131 13.55Z" fill="black"/>
<path d="M11.9836 8.61C11.8037 8.61 11.6338 8.51 11.5539 8.33C11.4439 8.09 11.5539 7.81 11.7937 7.7L14.7319 6.36C14.9717 6.25 15.2515 6.36 15.3614 6.6C15.4714 6.84 15.3615 7.12 15.1216 7.23L12.1835 8.57C12.1235 8.6 12.0536 8.61 11.9836 8.61Z" fill="black"/>
<path d="M11.9936 4.57C11.7338 4.57 11.5139 4.36 11.5139 4.09V2.48C11.5139 2.22 11.7238 2 11.9936 2C12.2634 2 12.4733 2.21 12.4733 2.48V4.09C12.4733 4.35 12.2634 4.57 11.9936 4.57Z" fill="black"/>
<path d="M8.76565 4.57C8.64573 4.57 8.5258 4.52 8.42587 4.43L6.81689 2.82C6.62701 2.63 6.62701 2.33 6.81689 2.15C7.00677 1.97 7.30658 1.96 7.48647 2.15L9.09544 3.76C9.28532 3.95 9.28532 4.25 9.09544 4.43C9.0055 4.52 8.88557 4.57 8.75566 4.57H8.76565Z" fill="black"/>
<path d="M15.2215 4.57C15.1016 4.57 14.9817 4.52 14.8818 4.43C14.6919 4.24 14.6919 3.94 14.8818 3.76L16.4907 2.15C16.6806 1.96 16.9804 1.96 17.1603 2.15C17.3402 2.34 17.3502 2.64 17.1603 2.82L15.5513 4.43C15.4614 4.52 15.3415 4.57 15.2115 4.57H15.2215Z" fill="black"/>
</svg>
