<svg width="24" height="24" viewBox="0 0 24 24" fill="none" xmlns="http://www.w3.org/2000/svg">
<path d="M12 18.93C8.18 18.93 5.07 15.82 5.07 12C5.07 8.18 8.18 5.07 12 5.07C15.82 5.07 18.93 8.18 18.93 12C18.93 15.82 15.82 18.93 12 18.93ZM12 6.02C8.7 6.02 6.02 8.7 6.02 12C6.02 15.3 8.7 17.98 12 17.98C15.3 17.98 17.98 15.3 17.98 12C17.98 8.7 15.3 6.02 12 6.02Z" fill="black"/>
<path d="M8.77 12.48H5.54C5.28 12.48 5.06 12.27 5.06 12C5.06 11.73 5.27 11.52 5.54 11.52H8.77C9.03 11.52 9.25 11.73 9.25 12C9.25 12.27 9.04 12.48 8.77 12.48Z" fill="black"/>
<path d="M8.77 9.25H6.41C6.15 9.25 5.93 9.04 5.93 8.77C5.93 8.5 6.14 8.29 6.41 8.29H8.77C9.03 8.29 9.25 8.5 9.25 8.77C9.25 9.04 9.04 9.25 8.77 9.25Z" fill="black"/>
<path d="M4.01 22C2.9 22 2 21.1 2 19.99C2 18.88 2.9 17.98 4.01 17.98C5.12 17.98 6.02 18.88 6.02 19.99C6.02 21.1 5.12 22 4.01 22ZM4.01 18.93C3.43 18.93 2.95 19.4 2.95 19.99C2.95 20.58 3.42 21.05 4.01 21.05C4.6 21.05 5.07 20.58 5.07 19.99C5.07 19.4 4.6 18.93 4.01 18.93Z" fill="black"/>
<path d="M19.99 6.02C18.88 6.02 17.98 5.12 17.98 4.01C17.98 2.9 18.88 2 19.99 2C21.1 2 22 2.9 22 4.01C22 5.12 21.1 6.02 19.99 6.02ZM19.99 2.95C19.41 2.95 18.93 3.42 18.93 4.01C18.93 4.6 19.4 5.07 19.99 5.07C20.58 5.07 21.05 4.6 21.05 4.01C21.05 3.42 20.58 2.95 19.99 2.95Z" fill="black"/>
</svg>
