<svg width="24" height="24" viewBox="0 0 24 24" fill="none" xmlns="http://www.w3.org/2000/svg">
<path fill-rule="evenodd" clip-rule="evenodd" d="M3.17538 2.2635C3.41886 2.02257 3.77902 1.93844 4.10568 2.04619L6.83295 2.94575C7.20417 3.06819 7.45456 3.41195 7.45456 3.79915V6.12523L10.2818 8.92281C10.2161 8.57352 10.1818 8.21392 10.1818 7.84719C10.1818 4.61789 12.8274 2.00002 16.0909 2.00002C17.1697 2.00002 18.1835 2.2869 19.0558 2.78836C19.2998 2.92864 19.4641 3.17308 19.5006 3.44998C19.537 3.72687 19.4414 4.00482 19.2419 4.20227L16.8532 6.56598C16.6626 6.75459 16.5588 6.8583 16.4899 6.93851C16.4872 6.94171 16.4846 6.94474 16.4822 6.94763C16.4846 6.95051 16.4872 6.95355 16.4899 6.95674C16.5588 7.03696 16.6626 7.14066 16.8532 7.32928L17.0689 7.54271C17.2595 7.73133 17.3643 7.83404 17.4453 7.90214C17.4486 7.90485 17.4516 7.9074 17.4545 7.90979C17.4575 7.9074 17.4605 7.90485 17.4638 7.90214C17.5448 7.83404 17.6496 7.73133 17.8402 7.54271L20.0747 5.33166C20.2897 5.11891 20.598 5.0266 20.8961 5.08571C21.1943 5.14482 21.4428 5.34751 21.5584 5.62581C21.8433 6.31188 22 7.06256 22 7.84719C22 10.55 20.1467 12.8245 17.629 13.4943L20.3701 16.2066C21.4782 17.3032 21.4782 19.081 20.3701 20.1775C19.262 21.274 17.4653 21.274 16.3572 20.1775L12.0001 15.8661L7.64284 20.1776C6.53471 21.2741 4.73806 21.2741 3.62993 20.1776C2.52179 19.0811 2.52179 17.3033 3.62993 16.2067L9.35073 10.5459L6.16892 7.39741H3.8182C3.4269 7.39741 3.07951 7.14964 2.95577 6.78231L2.04668 4.08362C1.93779 3.76038 2.02281 3.404 2.26629 3.16307L3.17538 2.2635ZM5.63638 5.59828V4.44752L4.06374 3.9288L3.94922 4.04212L4.47344 5.59828H5.63638ZM11.2783 11.1828L4.91557 17.4789C4.51748 17.8728 4.51748 18.5115 4.91557 18.9054C5.31367 19.2994 5.9591 19.2994 6.3572 18.9054L12.8636 12.4672C12.8808 12.4502 12.8983 12.4327 12.9163 12.4148C12.9534 12.3779 12.992 12.3394 13.0322 12.3003L13.1205 12.213C13.2229 12.1117 13.3332 12.0261 13.4488 11.9553C13.483 11.9332 13.5179 11.9127 13.5534 11.8939C13.6422 11.8469 13.7499 11.7951 13.881 11.7556C14.0121 11.7161 14.1307 11.6998 14.231 11.6899C14.2505 11.688 14.27 11.6865 14.2895 11.6854C14.535 11.6653 14.7795 11.6901 15.005 11.7513C15.0995 11.777 15.1954 11.7994 15.2927 11.8184C15.2931 11.8185 15.2935 11.8185 15.2939 11.8186C15.3115 11.8221 15.3292 11.8254 15.3469 11.8286C15.4628 11.8496 15.5804 11.8658 15.6996 11.877C15.8282 11.8891 15.9587 11.8952 16.0909 11.8952C18.3503 11.8952 20.1818 10.0829 20.1818 7.84719C20.1818 7.82164 20.1816 7.79615 20.1811 7.77073L19.1054 8.83516C18.9432 8.99572 18.7852 9.15209 18.6404 9.27369C18.4815 9.40721 18.2798 9.55076 18.0164 9.63544C17.6512 9.75284 17.2579 9.75284 16.8927 9.63544C16.6293 9.55076 16.4276 9.40721 16.2687 9.27369C16.1239 9.1521 15.9659 8.99574 15.8037 8.83518L15.547 8.58117C15.3848 8.42065 15.2267 8.26433 15.1039 8.1211C14.9689 7.96381 14.8239 7.76421 14.7383 7.50359C14.6196 7.14225 14.6196 6.75301 14.7383 6.39167C14.8239 6.13105 14.9689 5.93144 15.1039 5.77416C15.2267 5.63094 15.3847 5.47462 15.547 5.3141L16.9811 3.89506C16.6948 3.83228 16.397 3.79915 16.0909 3.79915C13.8316 3.79915 12 5.61152 12 7.84719C12 8.11787 12.0267 8.38149 12.0774 8.63588L12.0808 8.65252C12.1215 8.85696 12.157 9.03506 12.1798 9.17797C12.2013 9.31196 12.2266 9.49792 12.2075 9.68767C12.1975 9.78683 12.181 9.90425 12.1411 10.0339C12.1012 10.1636 12.0489 10.2703 12.0014 10.3582C11.871 10.5993 11.6543 10.8123 11.4749 10.9886C11.4568 11.0063 11.4391 11.0237 11.422 11.0407L11.2801 11.1811C11.2798 11.1814 11.2795 11.1817 11.2792 11.182C11.2789 11.1823 11.2786 11.1825 11.2783 11.1828ZM13.2857 14.5939L17.6428 18.9053C18.0409 19.2993 18.6863 19.2993 19.0844 18.9053C19.4825 18.5114 19.4825 17.8727 19.0844 17.4788L15.1917 13.627C15.1079 13.6143 15.0247 13.5999 14.9421 13.5837C14.7138 13.5392 14.5682 13.5109 14.462 13.4943C14.4414 13.4911 14.4245 13.4887 14.4109 13.4869C14.4076 13.4898 14.4039 13.493 14.4 13.4966C14.3469 13.5442 14.2776 13.6124 14.157 13.7317C14.1544 13.7343 14.1518 13.7368 14.1492 13.7394L13.2857 14.5939Z" fill="black"/>
</svg>
