<svg width="24" height="24" viewBox="0 0 24 24" fill="none" xmlns="http://www.w3.org/2000/svg">
<path fill-rule="evenodd" clip-rule="evenodd" d="M4.33211 4.33211C3.4864 5.17782 3 6.59863 3 9V15C3 17.4014 3.4864 18.8222 4.33211 19.6679C5.17782 20.5136 6.59863 21 9 21H10V15.8H9.3C9.04585 15.8 8.67157 15.7358 8.36789 15.4321C8.06421 15.1284 8 14.7541 8 14.5V12.6C8 12.3459 8.06421 11.9716 8.36789 11.6679C8.67157 11.3642 9.04585 11.3 9.3 11.3H10V9C10 6.74771 11.7477 5 14 5H16.7C16.9541 5 17.3284 5.06421 17.6321 5.3679C17.9358 5.67158 18 6.04586 18 6.3V8.7C18 8.95414 17.9358 9.32842 17.6321 9.6321C17.3284 9.93579 16.9541 10 16.7 10H15V11.2H16.6C17.0879 11.2 17.4534 11.4648 17.6571 11.7703C17.8409 12.0461 17.9 12.3517 17.9 12.6V12.7041L17.4883 14.6599C17.4473 14.9352 17.3088 15.1292 17.2229 15.2284C17.1126 15.3557 16.9918 15.4411 16.902 15.495C16.7509 15.5857 16.4959 15.7 16.2 15.7H15V21C17.4014 21 18.8222 20.5136 19.6679 19.6679C20.5136 18.8222 21 17.4014 21 15V9C21 6.59863 20.5136 5.17782 19.6679 4.33211C18.8222 3.4864 17.4014 3 15 3H9C6.59863 3 5.17782 3.4864 4.33211 4.33211ZM15 23H9C6.40137 23 4.32218 22.4864 2.91789 21.0821C1.5136 19.6778 1 17.5986 1 15V9C1 6.40137 1.5136 4.32218 2.91789 2.91789C4.32218 1.5136 6.40137 1 9 1H15C17.5986 1 19.6778 1.5136 21.0821 2.91789C22.4864 4.32218 23 6.40137 23 9V15C23 17.5986 22.4864 19.6778 21.0821 21.0821C19.6778 22.4864 17.5986 23 15 23ZM13 21V13.7H15.6465L15.7518 13.2H13V9.3C13 9.04585 13.0642 8.67157 13.3679 8.36789C13.6716 8.06421 14.0459 8 14.3 8H16V7H14C12.8523 7 12 7.85228 12 9V13.3H10V13.8H12V21H13Z" fill="black"/>
</svg>
