<svg width="24" height="24" viewBox="0 0 24 24" fill="none" xmlns="http://www.w3.org/2000/svg">
<path fill-rule="evenodd" clip-rule="evenodd" d="M3.74354 3.74354C5.02017 2.46691 6.91034 2 9.27273 2H14.7273C17.0897 2 18.9798 2.46691 20.2565 3.74354C21.5331 5.02017 22 6.91034 22 9.27273V14.7273C22 16.519 21.7331 18.0315 21.0516 19.2159C20.3494 20.4363 19.2625 21.2134 17.8343 21.6188C16.9255 21.8866 15.8887 22 14.7273 22H9.27273C8.11126 22 7.0745 21.8866 6.16566 21.6188C4.73754 21.2134 3.65057 20.4363 2.94839 19.2159C2.26694 18.0315 2 16.519 2 14.7273V9.27273C2 6.91034 2.46691 5.02017 3.74354 3.74354ZM7.50081 20.0573C8.01696 20.1399 8.60424 20.1818 9.27273 20.1818H14.7273C15.3958 20.1818 15.983 20.1399 16.4992 20.0573C15.9532 18.6223 14.2515 17.4273 12 17.4273C9.74848 17.4273 8.04682 18.6223 7.50081 20.0573ZM18.2415 19.5102C18.7873 19.214 19.1841 18.8159 19.4757 18.3091C19.9306 17.5185 20.1818 16.372 20.1818 14.7273V9.27273C20.1818 7.08966 19.7396 5.79801 18.9708 5.02919C18.202 4.26036 16.9103 3.81818 14.7273 3.81818H9.27273C7.08966 3.81818 5.79801 4.26036 5.02919 5.02919C4.26036 5.79801 3.81818 7.08966 3.81818 9.27273V14.7273C3.81818 16.372 4.06942 17.5185 4.52433 18.3091C4.81589 18.8159 5.21268 19.214 5.75847 19.5102C6.5746 17.1641 9.17634 15.6091 12 15.6091C14.8237 15.6091 17.4254 17.1641 18.2415 19.5102ZM12 8.36364C10.7021 8.36364 9.65455 9.41117 9.65455 10.7091C9.65455 12.0103 10.7054 13.0636 12 13.0636C13.2946 13.0636 14.3455 12.0103 14.3455 10.7091C14.3455 9.41117 13.2979 8.36364 12 8.36364ZM7.83636 10.7091C7.83636 8.40701 9.69792 6.54545 12 6.54545C14.3021 6.54545 16.1636 8.40701 16.1636 10.7091C16.1636 13.0079 14.3054 14.8818 12 14.8818C9.69462 14.8818 7.83636 13.0079 7.83636 10.7091Z" fill="black"/>
</svg>
