<svg width="24" height="24" viewBox="0 0 24 24" fill="none" xmlns="http://www.w3.org/2000/svg">
<path d="M11.995 22C11.7351 22 11.5152 21.79 11.5152 21.52V2.48C11.5152 2.22 11.7251 2 11.995 2H18.4518C18.5817 2 18.7016 2.05 18.7916 2.14L20.4008 3.75C20.5907 3.94 20.5907 4.24 20.4008 4.42L18.7916 6.03C18.7016 6.12 18.5817 6.17 18.4518 6.17H12.4748V21.51C12.4748 21.77 12.2649 21.99 11.995 21.99V22ZM12.4748 5.23H18.2519L19.3913 4.09L18.2519 2.95H12.4748V5.23Z" fill="black"/>
<path d="M18.4518 15.87H11.995C11.7351 15.87 11.5152 15.66 11.5152 15.39C11.5152 15.12 11.7251 14.91 11.995 14.91H18.2519L19.3913 13.77L18.2519 12.63H11.995C11.7351 12.63 11.5152 12.42 11.5152 12.15C11.5152 11.88 11.7251 11.67 11.995 11.67H18.4518C18.5817 11.67 18.7016 11.72 18.7916 11.81L20.4008 13.42C20.5907 13.61 20.5907 13.91 20.4008 14.09L18.7916 15.7C18.7016 15.79 18.5817 15.84 18.4518 15.84V15.87Z" fill="black"/>
<path d="M11.995 11.02H5.53823C5.4083 11.02 5.28836 10.97 5.1984 10.88L3.58921 9.27C3.3993 9.08 3.3993 8.78 3.58921 8.6L5.1984 6.99C5.28836 6.9 5.4083 6.85 5.53823 6.85H11.995C12.2549 6.85 12.4748 7.06 12.4748 7.33C12.4748 7.6 12.2649 7.81 11.995 7.81H5.73813L4.5987 8.95L5.73813 10.09H11.995C12.2549 10.09 12.4748 10.3 12.4748 10.57C12.4748 10.84 12.2649 11.05 11.995 11.05V11.02Z" fill="black"/>
<path d="M2.47976 22C2.21989 22 2 21.79 2 21.52C2 21.25 2.2099 21.04 2.47976 21.04H21.5202C21.7801 21.04 22 21.25 22 21.52C22 21.79 21.7901 22 21.5202 22H2.47976Z" fill="black"/>
</svg>
