<svg width="24" height="24" viewBox="0 0 24 24" fill="none" xmlns="http://www.w3.org/2000/svg">
<path fill-rule="evenodd" clip-rule="evenodd" d="M15.9634 3L15.9643 3C19.3022 3 22.0001 5.71147 22.0001 9.0505C22.0001 12.525 20.3832 15.2584 18.4789 17.2057C16.5894 19.1377 14.3528 20.3665 12.9042 20.8609C12.6037 20.9657 12.2757 21 12 21C11.7244 21 11.3964 20.9657 11.0959 20.8609C9.64731 20.3665 7.41065 19.1377 5.5212 17.2057C3.61689 15.2584 2 12.525 2 9.0505C2 5.71147 4.69792 3 8.03574 3C9.55724 3 10.9431 3.56531 11.9998 4.4943C12.3814 4.15929 12.8053 3.87281 13.2621 3.6428C14.0999 3.22097 15.025 3.00082 15.9634 3ZM8.03574 5.13861C5.89139 5.13861 4.14287 6.88259 4.14287 9.0505C4.14287 11.8136 5.41884 14.0391 7.05473 15.7119C8.70353 17.3979 10.6517 18.4498 11.7926 18.8385L11.802 18.8417C11.8047 18.8424 11.8219 18.8472 11.8555 18.852C11.8958 18.8577 11.9457 18.8614 12 18.8614C12.0544 18.8614 12.1043 18.8577 12.1446 18.852C12.1812 18.8468 12.1984 18.8416 12.1984 18.8416L12.2074 18.8385L12.2075 18.8385C13.3483 18.4498 15.2966 17.3979 16.9454 15.7119C18.5812 14.0391 19.8572 11.8136 19.8572 9.0505C19.8572 6.88276 18.109 5.13889 15.9648 5.13861C15.3613 5.13921 14.7662 5.28085 14.2273 5.55219C13.6883 5.82359 13.2204 6.21721 12.8612 6.70152C12.6594 6.97371 12.3402 7.13438 12.0009 7.13465C11.6616 7.13492 11.3422 6.97476 11.1399 6.70288C10.4305 5.74954 9.3057 5.13861 8.03574 5.13861Z" fill="black"/>
</svg>
