<svg width="24" height="24" viewBox="0 0 24 24" fill="none" xmlns="http://www.w3.org/2000/svg">
<path d="M15.609 5.50002V15.66C15.609 16.06 15.489 16.45 15.269 16.78L12.539 20.84C12.109 21.49 11.039 21.95 10.129 21.61C9.14898 21.28 8.49898 20.18 8.70898 19.2L9.22898 15.93C9.26898 15.63 9.18898 15.36 9.01898 15.15C8.9321 15.0529 8.82579 14.9751 8.70692 14.9217C8.58805 14.8683 8.45929 14.8405 8.32898 14.84H4.21898C3.42898 14.84 2.74898 14.52 2.34898 13.96C1.96898 13.42 1.89898 12.72 2.14898 12.01L4.60898 4.52002C4.91898 3.28002 6.26898 2.27002 7.60898 2.27002H11.509C12.179 2.27002 13.119 2.50002 13.549 2.93002L14.829 3.92002C15.071 4.10634 15.2671 4.34561 15.4024 4.61949C15.5376 4.89337 15.6082 5.19458 15.609 5.50002ZM18.79 17.608H19.82C21.37 17.608 22 17.008 22 15.528V5.47802C22 3.99802 21.37 3.39802 19.82 3.39802H18.79C17.24 3.39802 16.61 3.99802 16.61 5.47802V15.538C16.61 17.008 17.24 17.608 18.79 17.608Z" fill="black"/>
</svg>
