<svg width="24" height="24" viewBox="0 0 24 24" fill="none" xmlns="http://www.w3.org/2000/svg">
<path d="M15.2168 21.99C14.9571 21.99 14.7373 21.7802 14.7373 21.5105V20.3717H4.56743V21.5105C4.56743 21.7702 4.35764 21.99 4.08791 21.99C3.81818 21.99 3.60839 21.7802 3.60839 21.5105V20.3717H2.47952C2.21978 20.3717 2 20.1619 2 19.8922V16.5856C2 15.4368 2.93906 14.4978 4.08791 14.4978H9.9021V13.359C9.9021 12.7296 9.39261 12.2202 8.76324 12.2202H7.15485C5.11689 12.2202 3.45854 10.5619 3.45854 8.524C3.45854 6.48611 5.11689 4.82784 7.15485 4.82784H9.04296C12.2098 4.82784 14.7173 3.92877 16.4955 2.14063C16.6354 2.00077 16.8352 1.96081 17.015 2.04073C17.1948 2.11066 17.3047 2.29047 17.3047 2.48027V11.7506C17.3047 11.9404 17.1848 12.1203 17.015 12.1902C16.8352 12.2601 16.6354 12.2202 16.4955 12.0903C14.5075 10.1024 11.8601 9.0035 9.04296 9.0035C8.9031 9.0035 7.62438 9.04346 7.62438 10.1423C7.62438 10.7717 8.13387 11.2811 8.76324 11.2811C9.9121 11.2811 10.8512 12.2202 10.8512 13.369V14.5078H15.2168C16.2058 14.5078 17.035 15.1971 17.2548 16.1161H19.9021C20.1619 16.1161 20.3816 16.3259 20.3816 16.5956V19.4227H21.5205C21.7802 19.4227 22 19.6325 22 19.9022C22 20.1719 21.7902 20.3817 21.5205 20.3817H19.9121C19.6524 20.3817 19.4326 20.1719 19.4326 19.9022V17.0751H17.3247V19.9022C17.3247 20.1619 17.1149 20.3817 16.8452 20.3817H15.7063V21.5205C15.7063 21.7802 15.4965 22 15.2268 22L15.2168 21.99ZM15.2168 19.4227H16.3557V16.5956C16.3557 15.9663 15.8462 15.4568 15.2168 15.4568H4.08791C3.45854 15.4568 2.94905 15.9663 2.94905 16.5956V19.4227H15.2168ZM7.15485 5.78684C5.63637 5.78684 4.40759 7.01556 4.40759 8.53399C4.40759 10.0524 5.56644 11.2012 7.01499 11.2811C6.8052 10.9515 6.67533 10.5619 6.67533 10.1523C6.67533 8.50402 8.22378 8.06447 9.04296 8.06447C11.7403 8.06447 14.2977 8.99351 16.3557 10.6917V3.54916C14.4775 5.03762 12.02 5.78684 9.04296 5.78684H7.15485Z" fill="black"/>
</svg>
