<svg width="24" height="24" viewBox="0 0 24 24" fill="none" xmlns="http://www.w3.org/2000/svg">
<path d="M12.16 22C6.46 22 2 17.6 2 11.98C2 6.72001 6.01 2.43001 11.33 2.00001C11.53 1.99001 11.71 2.09001 11.79 2.26001C11.88 2.43001 11.85 2.64001 11.72 2.79001C10.18 4.53001 9.4 6.53001 9.4 8.75001C9.4 13.83 13.45 17.81 18.61 17.81C18.86 17.81 19.11 17.8 19.36 17.78C19.56 17.78 19.74 17.87 19.82 18.04C19.91 18.21 19.88 18.42 19.75 18.57C17.82 20.75 15.05 22 12.15 22H12.16ZM10.26 3.11001C6.02 3.98001 2.95 7.61001 2.95 11.98C2.95 17.06 7 21.04 12.16 21.04C14.4 21.04 16.56 20.22 18.23 18.75C12.72 18.56 8.46 14.23 8.46 8.74001C8.46 6.68001 9.06 4.79001 10.26 3.10001V3.11001Z" fill="black"/>
<path d="M19.91 10.84H13.45C12.3 10.84 11.36 9.90001 11.36 8.75001C11.36 7.74001 12.07 6.90001 13.02 6.70001C13.21 5.81001 13.96 5.13001 14.88 5.05001C15.36 4.07001 16.37 3.43001 17.48 3.43001C19.08 3.43001 20.38 4.73001 20.38 6.33001C20.38 6.46001 20.38 6.58001 20.36 6.71001C21.3 6.92001 22 7.75001 22 8.75001C22 9.90001 21.06 10.84 19.91 10.84ZM15.07 5.99001C14.44 5.99001 13.93 6.50001 13.93 7.13001C13.93 7.39001 13.72 7.61001 13.45 7.61001C12.82 7.61001 12.31 8.12001 12.31 8.75001C12.31 9.38001 12.82 9.89001 13.45 9.89001H19.91C20.54 9.89001 21.05 9.38001 21.05 8.75001C21.05 8.12001 20.54 7.61001 19.91 7.61001H19.77C19.62 7.61001 19.47 7.54001 19.38 7.41001C19.29 7.28001 19.27 7.12001 19.32 6.98001C19.39 6.77001 19.43 6.55001 19.43 6.33001C19.43 5.25001 18.56 4.38001 17.48 4.38001C16.66 4.38001 15.92 4.90001 15.64 5.68001C15.57 5.88001 15.37 6.02001 15.15 6.00001H15.05L15.07 5.99001Z" fill="black"/>
</svg>
