<svg width="24" height="24" viewBox="0 0 24 24" fill="none" xmlns="http://www.w3.org/2000/svg">
<path fill-rule="evenodd" clip-rule="evenodd" d="M14.1893 6.53498L10.4657 8.39713C9.53538 7.49961 8.29271 6.99865 7.00001 6.99998C4.24072 6.99998 2 9.2407 2 12C2 14.7593 4.24072 17 7.00001 17C8.29271 17.0013 9.53538 16.5004 10.4657 15.6029L14.1893 17.465C14.102 18.0254 14.137 18.5981 14.292 19.1437C14.4469 19.6893 14.7181 20.1948 15.087 20.6257C15.4558 21.0566 15.9135 21.4025 16.4287 21.6397C16.9439 21.8769 17.5043 21.9999 18.0714 22C20.24 22 22 20.24 22 18.0714C22 15.9029 20.24 14.1428 18.0714 14.1428C17.3819 14.1429 16.7044 14.3244 16.1072 14.6692C15.51 15.014 15.0141 15.5099 14.6693 16.1071L11.3579 14.4514C11.7664 13.7271 12 12.8907 12 12C12 11.1093 11.7664 10.2728 11.3579 9.54856L14.6693 7.89284C15.1594 8.7407 15.9485 9.37494 16.882 9.67122C17.8154 9.96751 18.8258 9.90447 19.7152 9.49448C20.6046 9.08449 21.3088 8.35709 21.6897 7.45489C22.0706 6.55269 22.1009 5.54074 21.7745 4.61741C21.4481 3.69407 20.7886 2.92594 19.9253 2.46358C19.062 2.00122 18.0571 1.87797 17.1076 2.118C16.1582 2.35803 15.3326 2.94402 14.7927 3.76111C14.2529 4.5782 14.0377 5.56746 14.1893 6.53498Z" fill="black"/>
</svg>
