<svg width="34" height="34" viewBox="0 0 34 34" fill="none" xmlns="http://www.w3.org/2000/svg">
<path fill-rule="evenodd" clip-rule="evenodd" d="M16.9835 12.6296C17.5308 12.6296 17.9744 13.0805 17.9744 13.6367V15.3991H19.7085C20.2558 15.3991 20.6995 15.85 20.6995 16.4062C20.6995 16.9624 20.2558 17.4133 19.7085 17.4133H17.9744V19.1757C17.9744 19.7319 17.5308 20.1827 16.9835 20.1827C16.4363 20.1827 15.9926 19.7319 15.9926 19.1757V17.4133H14.2585C13.7113 17.4133 13.2676 16.9624 13.2676 16.4062C13.2676 15.85 13.7113 15.3991 14.2585 15.3991H15.9926V13.6367C15.9926 13.0805 16.4363 12.6296 16.9835 12.6296Z" fill="black"/>
<path fill-rule="evenodd" clip-rule="evenodd" d="M23.0408 10.4399C22.5525 10.5501 22.0778 10.721 21.6271 10.9501C21.1376 11.1988 20.9392 11.8037 21.1839 12.3012C21.4287 12.7987 22.0239 13.0003 22.5134 12.7516C23.0684 12.4696 23.6759 12.318 24.2937 12.3072C24.3221 12.3067 24.3502 12.305 24.3779 12.3021C26.6426 12.7103 28.2675 14.4433 28.901 16.5555C29.5602 18.7533 29.1028 21.2179 27.2718 22.8412C27.2694 22.8433 27.2671 22.8454 27.2647 22.8475C27.2606 22.8512 27.2566 22.8549 27.2526 22.8587C26.1302 23.9072 24.6551 24.4845 23.1213 24.4729L15.7878 24.4729C15.6509 24.4729 15.5155 24.5017 15.3901 24.5576L9.45262 27.2021V25.48C9.45262 24.9513 9.05034 24.5126 8.53141 24.4754C3.58793 24.1211 3.57644 16.8431 8.49694 16.4566C9.1187 16.461 9.73114 16.6121 10.2859 16.8981C10.774 17.1497 11.3703 16.9516 11.6179 16.4556C11.8655 15.9596 11.6705 15.3535 11.1825 15.1019C10.5788 14.7906 9.92935 14.5864 9.26214 14.4959C8.54032 12.0277 8.87983 10.0036 9.75726 8.4741C10.7199 6.79617 12.3867 5.61562 14.2644 5.11392C16.1422 4.61222 18.1606 4.80812 19.8035 5.78881C21.2299 6.64022 22.4479 8.12733 23.0408 10.4399ZM7.24059 14.6228C6.53943 11.8557 6.92581 9.41081 8.04519 7.45959C9.30595 5.26193 11.4418 3.78547 13.7605 3.16595C16.0792 2.54644 18.6512 2.76512 20.8072 4.05204C22.8326 5.26102 24.4064 7.36263 25.0667 10.3885C27.9905 11.0538 30.0124 13.3531 30.7967 15.9682C31.6426 18.7888 31.0918 22.12 28.5843 24.3504C27.0928 25.7392 25.1381 26.5014 23.1103 26.4871H15.9954L8.85945 29.6653C8.55306 29.8018 8.19961 29.7719 7.91959 29.5859C7.63958 29.3999 7.4708 29.0829 7.4708 28.7429V26.3585C1.36524 25.0988 1.2885 16.0776 7.24059 14.6228Z" fill="black"/>
</svg>
