<svg width="24" height="24" viewBox="0 0 24 24" fill="none" xmlns="http://www.w3.org/2000/svg">
<path fill-rule="evenodd" clip-rule="evenodd" d="M2 12C2 6.49792 6.49792 2 12 2C17.5021 2 22 6.49792 22 12C22 17.5021 17.5021 22 12 22C6.49792 22 2 17.5021 2 12ZM12 3.81818C7.50208 3.81818 3.81818 7.50208 3.81818 12C3.81818 16.4979 7.50208 20.1818 12 20.1818C16.4979 20.1818 20.1818 16.4979 20.1818 12C20.1818 7.50208 16.4979 3.81818 12 3.81818ZM8.78445 8.78445C9.13947 8.42943 9.71508 8.42943 10.0701 8.78445L12 10.7144L13.9299 8.78445C14.2849 8.42943 14.8605 8.42943 15.2156 8.78445C15.5706 9.13947 15.5706 9.71508 15.2156 10.0701L13.2856 12L15.2156 13.9299C15.5706 14.2849 15.5706 14.8605 15.2156 15.2156C14.8605 15.5706 14.2849 15.5706 13.9299 15.2156L12 13.2856L10.0701 15.2156C9.71508 15.5706 9.13947 15.5706 8.78445 15.2156C8.42943 14.8605 8.42943 14.2849 8.78445 13.9299L10.7144 12L8.78445 10.0701C8.42943 9.71508 8.42943 9.13947 8.78445 8.78445Z" fill="black"/>
</svg>
