<svg width="24" height="24" viewBox="0 0 24 24" fill="none" xmlns="http://www.w3.org/2000/svg">
<path d="M6.32649 22C6.25638 22 6.18628 21.98 6.11617 21.95C5.87581 21.83 5.78568 21.55 5.90586 21.31L7.51828 18.08C7.63846 17.85 7.91888 17.75 8.15924 17.87C8.3996 17.99 8.48973 18.27 8.36955 18.51L6.75714 21.74C6.67702 21.91 6.50676 22 6.32649 22ZM11.985 22C11.9149 22 11.8448 21.98 11.7747 21.95C11.5343 21.83 11.4442 21.55 11.5643 21.31L13.1768 18.08C13.2969 17.85 13.5774 17.75 13.8177 17.87C14.0581 17.99 14.1482 18.27 14.028 18.51L12.4156 21.74C12.3355 21.91 12.1652 22 11.985 22ZM16.8322 17.48C16.7621 17.48 16.692 17.46 16.6219 17.43C16.3816 17.31 16.2914 17.03 16.4116 16.79L17.6835 14.25H13.0966L11.6144 17.22C11.4942 17.46 11.2138 17.55 10.9735 17.43C10.7331 17.31 10.643 17.03 10.7631 16.79L12.0351 14.25H7.44817L5.96595 17.22C5.84577 17.46 5.56535 17.55 5.32499 17.43C5.08463 17.31 4.99449 17.03 5.11467 16.79L6.38658 14.25H5.54532C3.55233 14.25 2 12.62 2 10.55C2 8.59 3.38207 7.04 5.20481 6.86C5.75563 4.06 8.2694 2 11.1738 2C13.4972 2 15.5904 3.3 16.642 5.34C16.9725 5.27 17.303 5.23 17.6435 5.23C20.0871 5.23 22 7.21 22 9.74C22 11.84 20.678 13.57 18.8252 14.09L17.2629 17.22C17.1828 17.39 17.0125 17.48 16.8322 17.48ZM12.8062 13.3H17.6435C19.5563 13.3 21.0486 11.74 21.0486 9.74C21.0486 7.74 19.5563 6.18 17.6435 6.18C17.2629 6.18 16.8923 6.24 16.5318 6.36C16.3015 6.44 16.0411 6.32 15.9409 6.09C15.1197 4.18 13.2569 2.95 11.1738 2.95C8.8002 2.95 6.72709 4.59 6.15623 6.84H8.75012C9.01052 6.84 9.23085 7.05 9.23085 7.32C9.23085 7.59 9.02053 7.8 8.75012 7.8H5.59539C5.59539 7.8 5.58538 7.8 5.57536 7.8C4.04306 7.8 2.92138 8.98 2.92138 10.55C2.92138 12.12 4.03305 13.3 5.51527 13.3H12.7962H12.8062Z" fill="black"/>
</svg>
