<svg width="24" height="24" viewBox="0 0 24 24" fill="none" xmlns="http://www.w3.org/2000/svg">
<path fill-rule="evenodd" clip-rule="evenodd" d="M4.99372 11.8168C4.57162 10.032 4.85179 8.43962 5.62617 7.15248C6.53013 5.64999 8.05735 4.64641 9.70755 4.226C11.3577 3.8056 13.1955 3.95193 14.7417 4.83198C16.1664 5.6429 17.2691 7.03464 17.7548 9.00701C19.7869 9.50251 21.1865 11.0518 21.7351 12.7959C22.34 14.719 21.9495 17.0045 20.143 18.5382C19.072 19.4882 17.6692 20.0095 16.2142 19.9999H6.11033C6.08894 19.9999 6.06756 19.9991 6.04622 19.9977C1.02847 19.6548 0.677632 13.0371 4.99372 11.8168ZM12.9001 13.7556C12.9001 14.2433 12.4921 14.6388 11.9888 14.6388C11.4854 14.6388 11.0774 14.2433 11.0774 13.7556C11.0774 13.2678 11.4854 12.8723 11.9888 12.8723C12.4921 12.8723 12.9001 13.2678 12.9001 13.7556ZM15.6343 14.6388C16.1376 14.6388 16.5457 14.2433 16.5457 13.7556C16.5457 13.2678 16.1376 12.8723 15.6343 12.8723C15.1309 12.8723 14.7229 13.2678 14.7229 13.7556C14.7229 14.2433 15.1309 14.6388 15.6343 14.6388Z" fill="#0080AC"/>
</svg>
