<svg width="24" height="24" viewBox="0 0 24 24" fill="none" xmlns="http://www.w3.org/2000/svg">
<path fill-rule="evenodd" clip-rule="evenodd" d="M15.3019 3.39692C14.375 2.48108 13.1316 1.97907 11.8442 2.00067C9.15067 2.00512 6.98342 4.23938 6.98274 6.98773C6.97949 8.27864 7.46668 9.5202 8.34124 10.4497C9.21609 11.3794 10.4099 11.9239 11.6698 11.9677C11.7069 11.969 11.7441 11.9679 11.7812 11.9645C11.8285 11.9601 11.8787 11.9608 11.9065 11.9637C11.9414 11.9673 11.9765 11.9687 12.0117 11.9681C13.3019 11.9442 14.5301 11.3963 15.426 10.4448C16.3219 9.49338 16.8121 8.2163 16.7889 6.89455C16.7656 5.57281 16.2307 4.31467 15.3019 3.39692Z" fill="#0080AC"/>
<path fill-rule="evenodd" clip-rule="evenodd" d="M16.9765 13.6718C15.5718 12.711 13.7661 12.2594 12.0067 12.2594C10.2466 12.2594 8.43761 12.7113 7.02515 13.6707L7.02187 13.6729C5.75334 14.5428 5 15.7782 5 17.1297C5 18.4813 5.75351 19.7147 7.02276 20.5802C8.43157 21.5456 10.2395 22 12 22C13.7608 22 15.5692 21.5453 16.9781 20.5796C18.2467 19.7097 19 18.4743 19 17.1228C19 15.7709 18.2462 14.5373 16.9765 13.6718Z" fill="#0080AC"/>
</svg>
