<svg width="24" height="24" viewBox="0 0 24 24" fill="none" xmlns="http://www.w3.org/2000/svg">
<path fill-rule="evenodd" clip-rule="evenodd" d="M12.8112 3.94333C12.6485 4.05568 12.4751 4.29572 12.4781 4.74288L12.4782 4.74885L12.4782 5.82024C12.4782 6.10612 12.5995 6.45501 12.8416 6.77579C13.0833 7.09602 13.3927 7.31822 13.6784 7.41075C13.6788 7.41089 13.6792 7.41102 13.6796 7.41116L17.8604 8.74446C17.8603 8.74441 17.8606 8.7445 17.8604 8.74446C18.3119 8.88766 18.6068 8.80406 18.7687 8.69201C18.9304 8.58006 19.1063 8.33854 19.1063 7.8813V6.81899C19.1063 6.5331 18.985 6.18421 18.7428 5.86343C18.5011 5.54321 18.1917 5.32101 17.9061 5.22848C17.9056 5.22834 17.9052 5.2282 17.9048 5.22806L13.7228 3.89437L13.7184 3.89298C13.2699 3.74762 12.9743 3.83078 12.8112 3.94333ZM14.3224 2.17191C13.3988 1.87324 12.4454 1.95834 11.7048 2.46959C11.0033 2.95385 10.6206 3.73218 10.5868 4.60471C10.579 4.65165 10.575 4.6998 10.575 4.74885V13.8284C9.76028 13.2425 8.76463 12.9204 7.73435 12.9204C6.47872 12.9204 5.27452 13.3987 4.38666 14.2501C3.4988 15.1015 3 16.2562 3 17.4602C3 18.6642 3.4988 19.819 4.38666 20.6703C5.27452 21.5217 6.47872 22 7.73435 22C8.98998 22 10.1942 21.5217 11.082 20.6703C11.9699 19.819 12.4687 18.6642 12.4687 17.4602V8.86525C12.6601 8.97315 12.8631 9.06365 13.0758 9.13227L13.0789 9.13327L17.2653 10.4684C18.1865 10.7608 19.1371 10.6766 19.877 10.1644C20.6172 9.65217 21 8.81322 21 7.8813V6.81899C21 6.07888 20.7047 5.36546 20.2769 4.79872C19.8491 4.2319 19.2358 3.74154 18.5087 3.50695L14.3247 2.17265C14.3239 2.1724 14.3232 2.17216 14.3224 2.17191ZM10.575 17.4602C10.575 16.7378 10.2757 16.045 9.74297 15.5342C9.21025 15.0233 8.48773 14.7364 7.73435 14.7364C6.98097 14.7364 6.25845 15.0233 5.72574 15.5342C5.19302 16.045 4.89374 16.7378 4.89374 17.4602C4.89374 18.1826 5.19302 18.8755 5.72574 19.3863C6.25845 19.8971 6.98097 20.1841 7.73435 20.1841C8.48773 20.1841 9.21025 19.8971 9.74297 19.3863C10.2757 18.8755 10.575 18.1826 10.575 17.4602Z" fill="#5789AD"/>
</svg>
