<svg width="24" height="24" viewBox="0 0 24 24" fill="none" xmlns="http://www.w3.org/2000/svg">
<path d="M17.6565 17.4823C20.0929 17.4823 22 15.5032 22 12.9745C22 11.5352 21.4608 10.2859 20.5022 9.48626C20.5322 9.30635 20.5422 9.12644 20.5422 8.93653C20.5422 7.70715 19.9331 6.55772 18.9246 5.87806C18.9246 5.81809 18.9246 5.76812 18.9246 5.70815C18.9246 3.66917 17.2671 2.01 15.2302 2.01C14.9206 2.01 14.6011 2.04998 14.3015 2.12994C14.0519 2.1999 13.8922 2.45977 13.9621 2.70965C14.032 2.95952 14.2916 3.11944 14.5412 3.04948C14.7609 2.98951 15.0005 2.95952 15.2302 2.95952C16.7479 2.95952 17.976 4.18891 17.976 5.70815C17.976 5.83808 17.966 5.95802 17.9461 6.06797C17.9261 6.25787 18.016 6.44778 18.1857 6.54773C19.0444 7.02749 19.5836 7.94703 19.5836 8.93653C19.5836 9.14643 19.5537 9.35632 19.5037 9.55622C19.4538 9.74613 19.5237 9.95602 19.6935 10.066C20.5622 10.6757 21.0414 11.7051 21.0414 12.9645C21.0414 14.9635 19.5537 16.5227 17.6465 16.5227H13.9321C15.0005 15.6932 15.6994 14.4138 15.6994 12.9645C15.6994 11.6052 15.0904 10.3258 14.0419 9.47626C14.0719 9.29635 14.0819 9.11644 14.0819 8.92654C14.0819 7.69715 13.4728 6.54773 12.4643 5.86807C12.4643 5.8081 12.4643 5.75812 12.4643 5.69815C12.4643 3.65917 10.8068 2 8.76985 2C6.7329 2 5.07539 3.65917 5.07539 5.69815C5.07539 5.75812 5.07539 5.8081 5.07539 5.86807C4.0669 6.54773 3.45781 7.69715 3.45781 8.92654C3.45781 9.11644 3.4678 9.29635 3.49775 9.47626C2.53919 10.2759 2 11.5252 2 12.9645C2 15.4933 3.90714 17.4723 6.34348 17.4723H8.29056V21.0405H3.95706C3.69745 21.0405 3.47778 21.2504 3.47778 21.5202C3.47778 21.7901 3.68747 22 3.95706 22H20.0729C20.3325 22 20.5522 21.7901 20.5522 21.5202C20.5522 21.2504 20.3425 21.0405 20.0729 21.0405H15.7094V17.4723H17.6465L17.6565 17.4823ZM8.78981 10.076C8.5302 10.076 8.31053 10.2859 8.31053 10.5557V16.5327H6.36345C4.45632 16.5327 2.96855 14.9735 2.96855 12.9745C2.96855 11.7151 3.44783 10.6857 4.31652 10.076C4.47629 9.96602 4.55617 9.75612 4.50624 9.56622C4.45632 9.36632 4.42636 9.15642 4.42636 8.94653C4.42636 7.95702 4.96555 7.03748 5.82426 6.55772C5.99401 6.46777 6.09386 6.27786 6.0639 6.07796C6.05392 5.96802 6.03395 5.83808 6.03395 5.71814C6.03395 4.1989 7.26211 2.96952 8.77983 2.96952C10.2976 2.96952 11.5257 4.1989 11.5257 5.71814C11.5257 5.84808 11.5157 5.96802 11.4958 6.07796C11.4758 6.26787 11.5657 6.45777 11.7354 6.55772C12.5941 7.03748 13.1333 7.95702 13.1333 8.94653C13.1333 9.15642 13.1033 9.36632 13.0534 9.56622C13.0035 9.75612 13.0734 9.96602 13.2431 10.076C14.1817 10.7356 14.7509 11.8251 14.7509 12.9745C14.7509 14.9335 13.1533 16.5327 11.1962 16.5327H9.24913V10.5557C9.24913 10.2959 9.03944 10.076 8.76985 10.076H8.78981ZM14.7609 21.0505H9.2691V17.4823H14.7609V21.0505Z" fill="black"/>
</svg>
