<svg width="24" height="24" viewBox="0 0 24 24" fill="none" xmlns="http://www.w3.org/2000/svg">
<path d="M18.3524 12.4717H5.70476C5.4381 12.4717 5.22857 12.262 5.22857 11.9952C5.22857 11.7284 5.4381 11.5188 5.70476 11.5188H18.3524C19.8381 11.5188 21.0476 10.3087 21.0476 8.8223C21.0476 7.33587 19.8381 6.12577 18.3524 6.12577C16.8667 6.12577 15.6571 7.33587 15.6571 8.8223C15.6571 9.08909 15.4476 9.29871 15.181 9.29871C14.9143 9.29871 14.7048 9.08909 14.7048 8.8223C14.7048 6.81182 16.3429 5.17294 18.3524 5.17294C20.3619 5.17294 22 6.81182 22 8.8223C22 10.8328 20.3619 12.4717 18.3524 12.4717Z" fill="black"/>
<path d="M9.33333 9.29871H2.47619C2.20952 9.29871 2 9.08909 2 8.8223C2 8.5555 2.20952 8.34588 2.47619 8.34588H9.33333C10.819 8.34588 12.0286 7.13578 12.0286 5.64936C12.0286 4.16293 10.819 2.95283 9.33333 2.95283C7.84762 2.95283 6.6381 4.16293 6.6381 5.64936C6.6381 5.91615 6.42857 6.12577 6.1619 6.12577C5.89524 6.12577 5.68571 5.91615 5.68571 5.64936C5.68571 3.63888 7.32381 2 9.33333 2C11.3429 2 12.981 3.63888 12.981 5.64936C12.981 7.65984 11.3429 9.29871 9.33333 9.29871Z" fill="black"/>
<path d="M15.1714 22C13.1619 22 11.5238 20.3611 11.5238 18.3506C11.5238 18.0838 11.7333 17.8742 12 17.8742C12.2667 17.8742 12.4762 18.0838 12.4762 18.3506C12.4762 19.8371 13.6857 21.0472 15.1714 21.0472C16.6571 21.0472 17.8667 19.8371 17.8667 18.3506C17.8667 16.8642 16.6571 15.6541 15.1714 15.6541H2.47619C2.20952 15.6541 2 15.4445 2 15.1777C2 14.9109 2.20952 14.7013 2.47619 14.7013H15.1714C17.181 14.7013 18.819 16.3402 18.819 18.3506C18.819 20.3611 17.181 22 15.1714 22Z" fill="black"/>
</svg>
