<svg width="24" height="24" viewBox="0 0 24 24" fill="none" xmlns="http://www.w3.org/2000/svg">
<path fill-rule="evenodd" clip-rule="evenodd" d="M2 12C2 6.47701 6.47701 2 12 2C17.523 2 22 6.47701 22 12C22 17.523 17.523 22 12 22C6.47701 22 2 17.523 2 12ZM12 3.81818C7.48117 3.81818 3.81818 7.48117 3.81818 12C3.81818 16.5188 7.48117 20.1818 12 20.1818C16.5188 20.1818 20.1818 16.5188 20.1818 12C20.1818 7.48117 16.5188 3.81818 12 3.81818ZM16.485 11.4764C13.8196 9.64394 10.408 9.2309 7.42041 10.3927C6.95247 10.5747 6.42561 10.3429 6.24363 9.87495C6.06166 9.40701 6.29347 8.88015 6.76141 8.69818C10.3193 7.31456 14.3622 7.81061 17.515 9.97814C17.9288 10.2626 18.0336 10.8286 17.7491 11.2423C17.4647 11.656 16.8987 11.7608 16.485 11.4764ZM15.0051 14.0038C13.186 12.6593 10.7861 12.4022 8.58847 13.2161C8.11765 13.3905 7.59461 13.1502 7.42023 12.6794C7.24585 12.2086 7.48617 11.6855 7.95699 11.5111C10.6684 10.5069 13.7231 10.7953 16.0858 12.5417C16.4896 12.8401 16.575 13.4093 16.2765 13.8131C15.9781 14.2168 15.4089 14.3022 15.0051 14.0038ZM14.0412 16.4837C12.6335 15.5452 10.9468 15.3277 9.42854 15.935C8.96237 16.1214 8.43331 15.8947 8.24684 15.4285C8.06037 14.9624 8.28711 14.4333 8.75328 14.2468C10.8714 13.3996 13.1847 13.7275 15.0497 14.9709C15.4675 15.2494 15.5804 15.8138 15.3019 16.2315C15.0234 16.6493 14.4589 16.7622 14.0412 16.4837Z" fill="black"/>
</svg>
