<svg width="24" height="24" viewBox="0 0 24 24" fill="none" xmlns="http://www.w3.org/2000/svg">
<path fill-rule="evenodd" clip-rule="evenodd" d="M12 4.14286C7.66316 4.14286 4.14286 7.66316 4.14286 12C4.14286 16.3368 7.66316 19.8571 12 19.8571C16.3368 19.8571 19.8571 16.3368 19.8571 12C19.8571 7.66316 16.3368 4.14286 12 4.14286ZM2 12C2 6.47969 6.47969 2 12 2C17.5203 2 22 6.47969 22 12C22 17.5203 17.5203 22 12 22C6.47969 22 2 17.5203 2 12Z" fill="black"/>
<path fill-rule="evenodd" clip-rule="evenodd" d="M11.9259 7C12.4373 7 12.8518 7.48016 12.8518 8.07247V11.7368C12.8518 11.7874 12.8733 11.918 12.952 12.078C13.0308 12.238 13.1169 12.3258 13.1541 12.3513L13.1565 12.353L15.5484 14.0064C15.9876 14.3099 16.1311 14.9683 15.869 15.477C15.607 15.9856 15.0386 16.1518 14.5995 15.8483L12.21 14.1966C12.2095 14.1963 12.209 14.1959 12.2085 14.1956C11.8298 13.9351 11.5383 13.5363 11.3434 13.1405C11.1483 12.7442 11 12.2492 11 11.7368V8.07247C11 7.48016 11.4145 7 11.9259 7Z" fill="black"/>
</svg>
