<svg width="24" height="24" viewBox="0 0 24 24" fill="none" xmlns="http://www.w3.org/2000/svg">
<path fill-rule="evenodd" clip-rule="evenodd" d="M5 8C5 4.13772 8.13772 1 12 1C15.8623 1 19 4.13772 19 8V13C19 16.8623 15.8623 20 12 20C8.13772 20 5 16.8623 5 13V8ZM12 3C9.24228 3 7 5.24228 7 8V13C7 15.7577 9.24228 18 12 18C14.7577 18 17 15.7577 17 13V8C17 5.24228 14.7577 3 12 3ZM14.2662 8.41906C12.7125 7.8503 11.0075 7.8503 9.45375 8.41906C8.93512 8.60891 8.36079 8.34238 8.17094 7.82375C7.98109 7.30512 8.24762 6.73079 8.76625 6.54094C10.7639 5.80968 12.9561 5.80968 14.9537 6.54094C15.4724 6.73079 15.7389 7.30512 15.5491 7.82375C15.3592 8.34238 14.7849 8.60891 14.2662 8.41906ZM13.4348 11.4442C12.4084 11.1619 11.3216 11.1619 10.2952 11.4442C9.76264 11.5906 9.21224 11.2777 9.06579 10.7452C8.91935 10.2126 9.23233 9.66224 9.76484 9.5158C11.1384 9.13807 12.5916 9.13807 13.9652 9.5158C14.4977 9.66224 14.8106 10.2126 14.6642 10.7452C14.5178 11.2777 13.9674 11.5906 13.4348 11.4442ZM3 10C3.55228 10 4 10.4477 4 11V13C4 15.1217 4.84285 17.1566 6.34315 18.6569C7.84344 20.1571 9.87827 21 12 21C14.1217 21 16.1566 20.1571 17.6569 18.6569C19.1571 17.1566 20 15.1217 20 13V11C20 10.4477 20.4477 10 21 10C21.5523 10 22 10.4477 22 11V13C22 15.6522 20.9464 18.1957 19.0711 20.0711C17.1957 21.9464 14.6522 23 12 23C9.34784 23 6.8043 21.9464 4.92893 20.0711C3.05357 18.1957 2 15.6522 2 13V11C2 10.4477 2.44772 10 3 10Z" fill="black"/>
</svg>
