<svg width="24" height="24" viewBox="0 0 24 24" fill="none" xmlns="http://www.w3.org/2000/svg">
<path d="M10.55 15.8965C9.4 15.8965 8.46 14.9118 8.46 13.6941C8.46 11.5447 10.12 9.79765 12.16 9.79765C14.2 9.79765 15.86 11.5447 15.86 13.6941C15.86 13.9694 15.65 14.1918 15.38 14.1918C15.11 14.1918 14.9 13.9694 14.9 13.6941C14.9 12.0953 13.67 10.7929 12.15 10.7929C10.63 10.7929 9.4 12.0953 9.4 13.6941C9.4 14.3506 9.91 14.8906 10.54 14.8906C11.17 14.8906 11.68 14.3506 11.68 13.6941C11.68 13.4188 11.89 13.1965 12.16 13.1965C12.43 13.1965 12.64 13.4188 12.64 13.6941C12.64 14.9118 11.7 15.8965 10.55 15.8965Z" fill="black"/>
<path d="M8.93 21C8.06 21 7.23 20.8306 6.47 20.5235C6.44 20.5235 6.42 20.5024 6.4 20.4918C3.83 19.4224 2 16.7859 2 13.7047C2 13.0271 2.06 12.3494 2.18 11.6824C3.11 6.56824 7.15 3 12 3C17.61 3 22 7.70118 22 13.7047C22 13.98 21.79 14.2024 21.52 14.2024H15.85C15.61 17.9929 12.6 21 8.93 21ZM7.29 19.7612C7.81 19.92 8.36 20.0047 8.93 20.0047C12.23 20.0047 14.91 17.1776 14.91 13.7047C14.91 13.4294 15.12 13.2071 15.39 13.2071H21.04C20.93 10.8565 20.08 8.76 18.73 7.16118L16.74 9.25765C16.55 9.45882 16.25 9.45882 16.07 9.25765C15.88 9.06706 15.88 8.74941 16.07 8.54824L18.06 6.45176C16.58 5.03294 14.64 4.14353 12.48 4.02706V6.91765C12.48 7.19294 12.27 7.41529 12 7.41529C11.73 7.41529 11.52 7.19294 11.52 6.91765V4.01647C9.38 4.13294 7.44 5.02235 5.95 6.45176L7.93 8.53765C8.12 8.72824 8.12 9.04588 7.93 9.24706C7.74 9.43765 7.44 9.43765 7.26 9.24706L5.29 7.17176C4.22 8.45294 3.45 10.0518 3.12 11.8729C3.04 12.3176 2.99 12.7624 2.97 13.2071H5.71C5.97 13.2071 6.19 13.4294 6.19 13.7047C6.19 13.98 5.98 14.2024 5.71 14.2024H2.97C3.14 16.5106 4.5 18.4694 6.39 19.4012L7.17 17.8447C7.29 17.6012 7.58 17.5059 7.81 17.6329C8.04 17.76 8.13 18.0671 8.01 18.3106L7.28 19.7506L7.29 19.7612Z" fill="black"/>
</svg>
