<svg width="16" height="16" viewBox="0 0 16 16" fill="none" xmlns="http://www.w3.org/2000/svg">
<path fill-rule="evenodd" clip-rule="evenodd" d="M2.06772 6.57919C2.19351 6.13118 2.46222 5.74481 2.79812 5.44413C3.46992 4.84127 4.42758 4.5902 5.28805 4.80368C5.33236 4.57667 5.42241 4.35116 5.52246 4.1497C5.63967 3.91217 5.78832 3.68966 5.95984 3.49122C6.57589 2.78011 7.48782 2.38622 8.40403 2.52904C9.26593 2.66435 10.0778 3.22963 10.4694 4.058C10.4709 4.05499 10.4737 4.05198 10.4766 4.05048C10.7953 3.82046 11.1913 3.72124 11.5743 3.7498C12.269 3.80242 12.9022 4.24141 13.1681 4.92546C13.301 5.26823 13.3382 5.64558 13.2896 6.01091C13.2653 6.19582 13.2152 6.37623 13.1452 6.54612C13.1295 6.5852 13.1123 6.62429 13.0923 6.66338C13.261 6.77764 13.4068 6.94752 13.5254 7.10839C13.6755 7.30984 13.7941 7.53986 13.8756 7.7804C14.1715 8.64786 13.9256 9.6386 13.2867 10.267C12.9622 10.5857 12.5492 10.8022 12.1075 10.8669C11.6772 10.93 11.187 10.8819 10.8139 10.6308C10.8128 10.6303 10.812 10.6295 10.8111 10.6286C10.8105 10.6279 10.81 10.6272 10.8094 10.6265C10.8086 10.6255 10.8078 10.6244 10.8068 10.6233C10.8041 10.6259 10.8014 10.6285 10.7988 10.631C10.7965 10.6333 10.7941 10.6357 10.7918 10.638C10.7816 10.648 10.7716 10.6578 10.761 10.6669C10.5967 10.8233 10.4194 10.9631 10.2322 11.0864C9.50749 11.5644 8.64845 11.7839 7.79513 11.7013C7.35632 11.6592 6.91894 11.5329 6.52158 11.3314C6.19569 11.1676 5.89552 10.945 5.67826 10.6429C5.44957 10.8293 5.17799 10.9571 4.89498 11.0172C4.20746 11.163 3.4985 10.8654 3.08399 10.273C2.7581 9.80698 2.61088 9.0613 2.97679 8.58923C2.95868 8.58322 2.94058 8.57587 2.92247 8.56852C2.91342 8.56484 2.90437 8.56117 2.89532 8.55766C2.79097 8.51406 2.69235 8.45543 2.6023 8.38477C2.42649 8.24345 2.28355 8.05853 2.18064 7.85407C1.98482 7.45868 1.94909 7.00766 2.06915 6.57919H2.06772ZM5.0669 13.0509C4.69955 13.0674 4.25788 13.0163 4.09351 12.6134H4.09494C4.02776 12.448 4.05063 12.2661 4.16498 12.1308C4.25109 11.9847 4.47624 11.8324 4.57806 11.7745C4.90824 11.6181 5.30417 11.6136 5.63435 11.7715C5.92737 11.9113 6.26612 12.2676 6.11032 12.6374C5.95148 13.0126 5.47572 13.0331 5.12953 13.0481L5.0669 13.0509ZM2.50398 14.1118C2.52089 14.2627 2.6371 14.3397 2.72162 14.3814C2.98362 14.513 3.27943 14.5259 3.552 14.4649C3.74639 14.4232 4.05488 14.298 3.99149 13.8999C3.93022 13.5179 3.66821 13.4537 3.43157 13.4569C3.4007 13.4559 3.3089 13.4563 3.18858 13.4665C3.01532 13.4826 2.84839 13.5404 2.69626 13.6912C2.60752 13.7779 2.48285 13.9256 2.50187 14.1086L2.50398 14.1118Z" fill="#0890BE"/>
</svg>
