<svg width="24" height="24" viewBox="0 0 24 24" fill="none" xmlns="http://www.w3.org/2000/svg">
<path fill-rule="evenodd" clip-rule="evenodd" d="M3.74354 3.74354C5.02017 2.46691 6.91034 2 9.27273 2H13.8182C14.3203 2 14.7273 2.40701 14.7273 2.90909C14.7273 3.41117 14.3203 3.81818 13.8182 3.81818H9.27273C7.08966 3.81818 5.79801 4.26036 5.02919 5.02919C4.26036 5.79801 3.81818 7.08966 3.81818 9.27273V14.7273C3.81818 16.9103 4.26036 18.202 5.02919 18.9708C5.79801 19.7396 7.08966 20.1818 9.27273 20.1818H14.7273C16.9103 20.1818 18.202 19.7396 18.9708 18.9708C19.7396 18.202 20.1818 16.9103 20.1818 14.7273V10.1818C20.1818 9.67974 20.5888 9.27273 21.0909 9.27273C21.593 9.27273 22 9.67974 22 10.1818V14.7273C22 17.0897 21.5331 18.9798 20.2565 20.2565C18.9798 21.5331 17.0897 22 14.7273 22H9.27273C6.91034 22 5.02017 21.5331 3.74354 20.2565C2.46691 18.9798 2 17.0897 2 14.7273V9.27273C2 6.91034 2.46691 5.02017 3.74354 3.74354ZM15.7923 3.06507C16.4743 2.38312 17.3992 2 18.3636 2C19.3281 2 20.253 2.38312 20.9349 3.06507C21.6169 3.74702 22 4.67194 22 5.63636C22 6.60079 21.6169 7.52571 20.9349 8.20766C20.253 8.88961 19.3281 9.27273 18.3636 9.27273C17.3992 9.27273 16.4743 8.88961 15.7923 8.20766C15.1104 7.52571 14.7273 6.60079 14.7273 5.63636C14.7273 4.67194 15.1104 3.74702 15.7923 3.06507ZM18.3636 3.81818C17.8814 3.81818 17.419 4.00974 17.078 4.35072C16.737 4.69169 16.5455 5.15415 16.5455 5.63636C16.5455 6.11858 16.737 6.58104 17.078 6.92201C17.419 7.26299 17.8814 7.45455 18.3636 7.45455C18.8458 7.45455 19.3083 7.26299 19.6493 6.92201C19.9903 6.58104 20.1818 6.11858 20.1818 5.63636C20.1818 5.15415 19.9903 4.69169 19.6493 4.35072C19.3083 4.00974 18.8458 3.81818 18.3636 3.81818ZM7.81895 7.68878C7.88299 7.19081 8.3386 6.83904 8.83658 6.90308C13.4094 7.49118 16.7859 10.8678 17.374 15.4406C17.4381 15.9385 17.0863 16.3941 16.5883 16.4582C16.0904 16.5222 15.6348 16.1705 15.5707 15.6725C15.0881 11.9199 12.3572 9.18902 8.60465 8.70641C8.10668 8.64236 7.7549 8.18676 7.81895 7.68878ZM6.85184 10.7112C6.91511 10.2131 7.37016 9.86059 7.86824 9.92385C11.3332 10.3639 13.9023 12.933 14.3424 16.398C14.4056 16.896 14.0531 17.3511 13.5551 17.4144C13.057 17.4776 12.6019 17.1251 12.5387 16.6271C12.203 13.9846 10.2816 12.0632 7.63914 11.7275C7.14107 11.6643 6.78858 11.2092 6.85184 10.7112ZM6.27842 14.135C6.34245 13.637 6.79804 13.2852 7.29602 13.3492C9.23575 13.5986 10.6785 15.0414 10.9279 16.9811C10.9919 17.4791 10.6401 17.9347 10.1422 17.9987C9.64418 18.0627 9.18859 17.7109 9.12456 17.213C8.98063 16.0935 8.18363 15.2965 7.06416 15.1526C6.56618 15.0885 6.2144 14.6329 6.27842 14.135Z" fill="black"/>
</svg>
