<svg width="24" height="24" viewBox="0 0 24 24" fill="none" xmlns="http://www.w3.org/2000/svg">
<path fill-rule="evenodd" clip-rule="evenodd" d="M11.993 2C12.5814 2 13.2152 2.0786 13.7462 2.26642L13.754 2.26917L18.4315 3.96917C18.4314 3.96916 18.4315 3.96917 18.4315 3.96917C19.1855 4.24262 19.8181 4.78677 20.2581 5.40364C20.6982 6.02065 21 6.78636 21 7.56654V14.3219C21 15.0388 20.7623 15.8004 20.4231 16.4545C20.0836 17.1089 19.5947 17.7481 19.0019 18.1778L14.9727 21.0947C14.9722 21.0951 14.9716 21.0955 14.9711 21.0959C14.1193 21.7163 13.0377 22 12 22C10.9623 22 9.8807 21.7163 9.0289 21.0959C9.02836 21.0955 9.02782 21.0951 9.02727 21.0947L4.99855 18.1781C4.40575 17.7484 3.91636 17.1089 3.57694 16.4545C3.23768 15.8004 3 15.0388 3 14.3219V7.56654C3 6.78955 3.30274 6.02584 3.74247 5.4108C4.18208 4.79591 4.81393 4.25223 5.56733 3.97869C5.56773 3.97855 5.56813 3.9784 5.56853 3.97826L10.247 2.26885C10.7731 2.0783 11.4057 2 11.993 2ZM10.9041 3.97192C10.9037 3.97205 10.9034 3.97218 10.903 3.97231L6.22522 5.68148C5.90103 5.79904 5.55363 6.06883 5.28331 6.44691C5.01288 6.82517 4.875 7.23432 4.875 7.56654V14.3219C4.875 14.6777 5.00294 15.1572 5.25197 15.6374C5.50083 16.1172 5.82279 16.5053 6.12061 16.7212L10.154 19.6413C10.6238 19.9838 11.2899 20.1816 12 20.1816C12.7101 20.1816 13.3762 19.9838 13.846 19.6413L13.8486 19.6394L17.8794 16.7212C18.1772 16.5053 18.4992 16.1172 18.748 15.6374C18.9971 15.1572 19.125 14.6777 19.125 14.3219V7.56654C19.125 7.22842 18.9861 6.81672 18.7161 6.43816C18.446 6.05948 18.0988 5.78989 17.7748 5.67238L13.1003 3.97353C12.8345 3.88017 12.4339 3.81839 11.993 3.81839C11.5496 3.81839 11.1562 3.88084 10.9041 3.97192ZM15.4285 8.79658C15.7947 9.15164 15.7947 9.72731 15.4285 10.0824L11.3973 13.9919C11.0312 14.347 10.4376 14.347 10.0715 13.9919L8.5621 12.5281C8.19598 12.173 8.19598 11.5974 8.5621 11.2423C8.92822 10.8872 9.52181 10.8872 9.88793 11.2423L10.7344 12.0632L14.1027 8.79658C14.4688 8.44152 15.0624 8.44152 15.4285 8.79658Z" fill="black"/>
</svg>
