<svg width="24" height="24" viewBox="0 0 24 24" fill="none" xmlns="http://www.w3.org/2000/svg">
<path fill-rule="evenodd" clip-rule="evenodd" d="M4.80192 6.73965C4.1999 7.32829 3.81818 8.202 3.81818 9.33333V14.6667C3.81818 15.798 4.1999 16.6717 4.80192 17.2604C5.40393 17.849 6.2975 18.2222 7.45455 18.2222H16.5455C17.7025 18.2222 18.5961 17.849 19.1981 17.2604C19.8001 16.6717 20.1818 15.798 20.1818 14.6667V9.33333C20.1818 8.202 19.8001 7.32829 19.1981 6.73965C18.5961 6.15101 17.7025 5.77778 16.5455 5.77778H7.45455C6.2975 5.77778 5.40393 6.15101 4.80192 6.73965ZM3.51627 5.48257C4.50516 4.51566 5.88432 4 7.45455 4H16.5455C18.1157 4 19.4948 4.51566 20.4837 5.48257C21.4726 6.44949 22 7.798 22 9.33333V14.6667C22 16.202 21.4726 17.5505 20.4837 18.5174C19.4948 19.4843 18.1157 20 16.5455 20H7.45455C5.88432 20 4.50516 19.4843 3.51627 18.5174C2.52738 17.5505 2 16.202 2 14.6667V9.33333C2 7.798 2.52738 6.44949 3.51627 5.48257ZM10.7643 10.4385C10.746 10.5 10.7273 10.6019 10.7273 10.7556V13.4222C10.7273 13.5339 10.7441 13.6056 10.7583 13.6454C10.8025 13.6364 10.8791 13.6121 10.9868 13.5489L13.2386 12.2279C13.3712 12.1387 13.4148 12.073 13.4281 12.0444C13.4148 12.0159 13.3712 11.9502 13.2386 11.861L10.9868 10.54C10.8896 10.4829 10.8152 10.4534 10.7643 10.4385ZM13.4335 12.0603C13.4333 12.0603 13.4328 12.0586 13.4324 12.055C13.4335 12.0584 13.4337 12.0602 13.4335 12.0603ZM13.4324 12.0339C13.4328 12.0303 13.4333 12.0286 13.4335 12.0286C13.4337 12.0286 13.4335 12.0305 13.4324 12.0339ZM9.84116 8.86339C10.5477 8.46482 11.3351 8.67109 11.9223 9.01556L14.195 10.3489C14.2074 10.3561 14.2195 10.3637 14.2315 10.3715C14.8058 10.7459 15.25 11.3238 15.25 12.0444C15.25 12.7651 14.8058 13.343 14.2315 13.7174C14.2195 13.7252 14.2074 13.7327 14.195 13.74L11.9223 15.0733C11.2949 15.4414 10.5189 15.5856 9.84116 15.2033C9.17086 14.8252 8.90909 14.1069 8.90909 13.4222V10.7556C8.90909 10.0377 9.13618 9.26108 9.84116 8.86339Z" fill="black"/>
</svg>
