<svg width="24" height="24" viewBox="0 0 24 24" fill="none" xmlns="http://www.w3.org/2000/svg">
<path fill-rule="evenodd" clip-rule="evenodd" d="M4.9136 4.90762C4.23494 5.58425 3.81593 6.67284 3.81593 8.34633V12.8794C3.81593 15.0678 4.26292 16.0878 4.8694 16.6169C5.50592 17.1722 6.56002 17.4125 8.36262 17.4125H8.81729C9.11927 17.4125 9.40438 17.5056 9.62242 17.6134C9.83718 17.7195 10.0899 17.8908 10.2752 18.1418L11.6362 19.951C11.7898 20.1552 11.9302 20.1868 12 20.1868C12.0697 20.1868 12.2101 20.1552 12.3637 19.951L13.7312 18.1332C14.0733 17.6844 14.6123 17.4125 15.1827 17.4125H15.6373C17.3158 17.4125 18.4077 16.9948 19.0863 16.3181C19.765 15.6415 20.184 14.5529 20.184 12.8794V10.1596C20.184 9.65885 20.5911 9.25295 21.0934 9.25295C21.5956 9.25295 22.0027 9.65885 22.0027 10.1596V12.8794C22.0027 14.8324 21.5124 16.4637 20.3723 17.6003C19.2323 18.7369 17.5962 19.2257 15.6373 19.2257H15.186C15.1857 19.2259 15.1852 19.2261 15.1847 19.2264C15.1832 19.2271 15.1818 19.228 15.1806 19.229C15.18 19.2295 15.1795 19.2299 15.1793 19.2302C15.1792 19.2303 15.1793 19.2302 15.1793 19.2302L13.8186 21.039C13.3721 21.6327 12.7213 22 12 22C11.2786 22 10.6279 21.6327 10.1813 21.039L8.83482 19.2491C8.82915 19.2456 8.82232 19.2417 8.81466 19.2379C8.80681 19.2341 8.79912 19.2307 8.79207 19.228C8.78976 19.2272 8.78765 19.2264 8.78575 19.2257H8.36262C6.52786 19.2257 4.85395 19.0128 3.6718 17.9815C2.4596 16.924 1.99725 15.2241 1.99725 12.8794V8.34633C1.99725 6.39334 2.48758 4.76208 3.6276 3.62547C4.76762 2.48886 6.40377 2 8.36262 2H13.8186C14.3209 2 14.728 2.40591 14.728 2.90662C14.728 3.40733 14.3209 3.81324 13.8186 3.81324H8.36262C6.68411 3.81324 5.59226 4.23099 4.9136 4.90762ZM16.5695 2.9294C17.1664 2.33431 17.9759 2 18.82 2C19.6641 2 20.4736 2.33431 21.0705 2.9294C21.6674 3.52448 22.0027 4.33159 22.0027 5.17316C22.0027 6.01474 21.6674 6.82185 21.0705 7.41693C20.4736 8.01201 19.6641 8.34633 18.82 8.34633C17.9759 8.34633 17.1664 8.01201 16.5695 7.41693C15.9726 6.82185 15.6373 6.01474 15.6373 5.17316C15.6373 4.33159 15.9726 3.52448 16.5695 2.9294ZM18.82 3.81324C18.4583 3.81324 18.1113 3.95651 17.8555 4.21155C17.5997 4.46659 17.456 4.81249 17.456 5.17316C17.456 5.53384 17.5997 5.87974 17.8555 6.13478C18.1113 6.38981 18.4583 6.53309 18.82 6.53309C19.1818 6.53309 19.5287 6.38981 19.7845 6.13478C20.0403 5.87974 20.184 5.53384 20.184 5.17316C20.184 4.81249 20.0403 4.46659 19.7845 4.21155C19.5287 3.95651 19.1818 3.81324 18.82 3.81324ZM7.44873 11.0662C7.44873 10.5655 7.85586 10.1596 8.35807 10.1596H8.36534C8.86756 10.1596 9.27468 10.5655 9.27468 11.0662C9.27468 11.5669 8.86756 11.9728 8.36534 11.9728H8.35807C7.85586 11.9728 7.44873 11.5669 7.44873 11.0662ZM11.0861 11.0662C11.0861 10.5655 11.4932 10.1596 11.9954 10.1596H12.0045C12.5067 10.1596 12.9139 10.5655 12.9139 11.0662C12.9139 11.5669 12.5067 11.9728 12.0045 11.9728H11.9954C11.4932 11.9728 11.0861 11.5669 11.0861 11.0662ZM14.7243 11.0662C14.7243 10.5655 15.1315 10.1596 15.6337 10.1596H15.6428C16.145 10.1596 16.5521 10.5655 16.5521 11.0662C16.5521 11.5669 16.145 11.9728 15.6428 11.9728H15.6337C15.1315 11.9728 14.7243 11.5669 14.7243 11.0662Z" fill="black"/>
</svg>
