<svg width="24" height="24" viewBox="0 0 24 24" fill="none" xmlns="http://www.w3.org/2000/svg">
<path fill-rule="evenodd" clip-rule="evenodd" d="M8.27615 5.07824C7.68219 5.8156 7.45455 6.91348 7.45455 8.36364V9.27273H16.5455V8.36364C16.5455 6.91348 16.3178 5.8156 15.7239 5.07824C15.1641 4.38335 14.1171 3.81818 12 3.81818C9.88286 3.81818 8.8359 4.38335 8.27615 5.07824ZM18.3636 9.37758V8.36364C18.3636 6.80471 18.1367 5.17531 17.1398 3.93767C16.1086 2.65756 14.4283 2 12 2C9.57168 2 7.89137 2.65756 6.86021 3.93767C5.86327 5.17531 5.63636 6.80471 5.63636 8.36364V9.37758C4.63686 9.51801 3.79801 9.82543 3.17536 10.4481C2.20444 11.419 2 12.9156 2 14.7273V16.5455C2 18.3571 2.20444 19.8537 3.17536 20.8246C4.14627 21.7956 5.64286 22 7.45455 22H16.5455C18.3571 22 19.8537 21.7956 20.8246 20.8246C21.7956 19.8537 22 18.3571 22 16.5455V14.7273C22 12.9156 21.7956 11.419 20.8246 10.4481C20.202 9.82543 19.3631 9.51801 18.3636 9.37758ZM4.46101 11.7337C4.06829 12.1265 3.81818 12.9026 3.81818 14.7273V16.5455C3.81818 18.3701 4.06829 19.1463 4.46101 19.539C4.85373 19.9317 5.62987 20.1818 7.45455 20.1818H16.5455C18.3701 20.1818 19.1463 19.9317 19.539 19.539C19.9317 19.1463 20.1818 18.3701 20.1818 16.5455V14.7273C20.1818 12.9026 19.9317 12.1265 19.539 11.7337C19.1463 11.341 18.3701 11.0909 16.5455 11.0909H7.45455C5.62987 11.0909 4.85373 11.341 4.46101 11.7337ZM9.75012 13.3865C10.3468 12.7898 11.1561 12.4545 12 12.4545C12.8439 12.4545 13.6532 12.7898 14.2499 13.3865C14.8466 13.9832 15.1818 14.7925 15.1818 15.6364C15.1818 16.4802 14.8466 17.2895 14.2499 17.8862C13.6532 18.483 12.8439 18.8182 12 18.8182C11.1561 18.8182 10.3468 18.483 9.75012 17.8862C9.15341 17.2895 8.81818 16.4802 8.81818 15.6364C8.81818 14.7925 9.15341 13.9832 9.75012 13.3865ZM12 14.2727C11.6383 14.2727 11.2915 14.4164 11.0358 14.6721C10.78 14.9279 10.6364 15.2747 10.6364 15.6364C10.6364 15.998 10.78 16.3449 11.0358 16.6006C11.2915 16.8563 11.6383 17 12 17C12.3617 17 12.7085 16.8563 12.9642 16.6006C13.22 16.3449 13.3636 15.998 13.3636 15.6364C13.3636 15.2747 13.22 14.9279 12.9642 14.6721C12.7085 14.4164 12.3617 14.2727 12 14.2727Z" fill="black"/>
</svg>
