<svg width="24" height="24" viewBox="0 0 24 24" fill="none" xmlns="http://www.w3.org/2000/svg">
<path fill-rule="evenodd" clip-rule="evenodd" d="M4.7958 4.7958C6.58592 3.00568 9.01384 2 11.5455 2C12.799 2 14.0402 2.2469 15.1983 2.7266C16.3565 3.20631 17.4087 3.90942 18.2951 4.7958C19.1815 5.68218 19.8846 6.73446 20.3643 7.89257C20.844 9.05068 21.0909 10.2919 21.0909 11.5455C21.0909 12.799 20.844 14.0402 20.3643 15.1983C19.8846 16.3565 19.1815 17.4087 18.2951 18.2951C17.4087 19.1815 16.3565 19.8846 15.1983 20.3643C14.0402 20.844 12.799 21.0909 11.5455 21.0909C9.01384 21.0909 6.58592 20.0852 4.7958 18.2951C3.00568 16.505 2 14.0771 2 11.5455C2 9.01384 3.00568 6.58592 4.7958 4.7958ZM11.5455 3.81818C9.49605 3.81818 7.53059 4.6323 6.08145 6.08145C4.6323 7.53059 3.81818 9.49605 3.81818 11.5455C3.81818 13.5949 4.6323 15.5603 6.08145 17.0095C7.53059 18.4586 9.49605 19.2727 11.5455 19.2727C12.5602 19.2727 13.565 19.0729 14.5026 18.6845C15.4401 18.2962 16.2919 17.727 17.0095 17.0095C17.727 16.2919 18.2962 15.4401 18.6845 14.5026C19.0729 13.565 19.2727 12.5602 19.2727 11.5455C19.2727 10.5307 19.0729 9.52587 18.6845 8.58836C18.2962 7.65084 17.727 6.79899 17.0095 6.08145C16.2919 5.3639 15.4401 4.79472 14.5026 4.40639C13.565 4.01805 12.5602 3.81818 11.5455 3.81818ZM19.9156 18.6299L21.7337 20.4481C22.0888 20.8031 22.0888 21.3787 21.7337 21.7337C21.3787 22.0888 20.8031 22.0888 20.4481 21.7337L18.6299 19.9156C18.2749 19.5605 18.2749 18.9849 18.6299 18.6299C18.9849 18.2749 19.5605 18.2749 19.9156 18.6299Z" fill="black"/>
</svg>
