<svg width="24" height="24" viewBox="0 0 24 24" fill="none" xmlns="http://www.w3.org/2000/svg">
<path fill-rule="evenodd" clip-rule="evenodd" d="M2.75777 2.69014C3.33783 2.14443 4.13447 2 4.93636 2H8.60909C9.41099 2 10.2076 2.14443 10.7877 2.69014C11.3817 3.24896 11.5455 4.0335 11.5455 4.81818V6.45455C11.5455 7.23922 11.3817 8.02376 10.7877 8.58259C10.2076 9.1283 9.41099 9.27273 8.60909 9.27273H4.93636C4.13447 9.27273 3.33783 9.1283 2.75777 8.58259C2.16376 8.02376 2 7.23922 2 6.45455V4.81818C2 4.0335 2.16376 3.24896 2.75777 2.69014ZM13.2123 2.69014C13.7924 2.14443 14.589 2 15.3909 2H19.0636C19.8655 2 20.6622 2.14443 21.2422 2.69014C21.8362 3.24896 22 4.0335 22 4.81818V11C22 11.7847 21.8362 12.5692 21.2422 13.128C20.6622 13.6738 19.8655 13.8182 19.0636 13.8182H15.3909C14.589 13.8182 13.7924 13.6738 13.2123 13.128C12.6183 12.5692 12.4545 11.7847 12.4545 11V4.81818C12.4545 4.0335 12.6183 3.24896 13.2123 2.69014ZM2.75777 10.872C3.33783 10.3262 4.13447 10.1818 4.93636 10.1818H8.60909C9.41099 10.1818 10.2076 10.3262 10.7877 10.872C11.3817 11.4308 11.5455 12.2153 11.5455 13V19.1818C11.5455 19.9665 11.3817 20.751 10.7877 21.3099C10.2076 21.8556 9.41099 22 8.60909 22H4.93636C4.13447 22 3.33783 21.8556 2.75777 21.3099C2.16376 20.751 2 19.9665 2 19.1818V13C2 12.2153 2.16376 11.4308 2.75777 10.872ZM13.2123 15.4174C13.7924 14.8717 14.589 14.7273 15.3909 14.7273H19.0636C19.8655 14.7273 20.6622 14.8717 21.2422 15.4174C21.8362 15.9762 22 16.7608 22 17.5455V19.1818C22 19.9665 21.8362 20.751 21.2422 21.3099C20.6622 21.8556 19.8655 22 19.0636 22H15.3909C14.589 22 13.7924 21.8556 13.2123 21.3099C12.6183 20.751 12.4545 19.9665 12.4545 19.1818V17.5455C12.4545 16.7608 12.6183 15.9762 13.2123 15.4174Z" fill="#0080AC"/>
</svg>
