<svg width="24" height="24" viewBox="0 0 24 24" fill="none" xmlns="http://www.w3.org/2000/svg">
<path fill-rule="evenodd" clip-rule="evenodd" d="M19.4855 4.51304C19.0364 4.06337 18.0315 3.75764 16.2595 4.3482L7.66758 7.21161C7.66736 7.21168 7.66781 7.21153 7.66758 7.21161C6.28779 7.67312 5.33135 8.18292 4.74046 8.67114C4.14597 9.16234 4.02424 9.53809 4.02424 9.757C4.02424 9.97559 4.14565 10.3505 4.73965 10.8403C5.3303 11.3273 6.28599 11.8352 7.66607 12.2943L9.44137 12.8859L12.9961 9.322C13.3908 8.92627 14.0316 8.92538 14.4274 9.32001C14.8232 9.71464 14.8241 10.3553 14.4294 10.7511L10.9942 14.1952L11.7074 16.3345C12.1665 17.714 12.6752 18.6699 13.1629 19.2604C13.6533 19.8542 14.0293 19.9762 14.2492 19.9762C14.469 19.9762 14.845 19.8542 15.3355 19.2604C15.8231 18.6699 16.3316 17.7145 16.7907 16.335L19.6545 7.74556C19.6544 7.74584 19.6545 7.74528 19.6545 7.74556C20.2404 5.97355 19.9358 4.96393 19.4855 4.51304ZM9.09691 14.9045L7.02696 14.2146C7.02679 14.2146 7.02713 14.2147 7.02696 14.2146C5.51768 13.7125 4.30584 13.1059 3.45179 12.4017C2.60099 11.7002 2 10.8071 2 9.757C2 8.70721 2.60067 7.81363 3.45097 7.11107C4.30478 6.40562 5.51601 5.7971 7.02545 5.29229L15.6193 2.42821C17.7035 1.73363 19.6742 1.83773 20.9179 3.08303C22.1603 4.32704 22.2653 6.29813 21.5763 8.38102L18.7114 16.974C18.7114 16.9742 18.7115 16.9738 18.7114 16.974C18.2091 18.4833 17.6016 19.6951 16.8963 20.549C16.1937 21.3997 15.2995 22 14.2492 22C13.1988 22 12.3046 21.3997 11.602 20.549C10.8967 19.6951 10.2894 18.4838 9.78705 16.9745C9.787 16.9743 9.78711 16.9747 9.78705 16.9745L9.09691 14.9045Z" fill="black"/>
</svg>
